<?xml version="1.0" encoding="utf-8" standalone="no"?>
<!DOCTYPE svg PUBLIC "-//W3C//DTD SVG 1.1//EN"
  "http://www.w3.org/Graphics/SVG/1.1/DTD/svg11.dtd">
<svg xmlns:xlink="http://www.w3.org/1999/xlink" width="864pt" height="360pt" viewBox="0 0 864 360" xmlns="http://www.w3.org/2000/svg" version="1.1">
 <metadata>
  <rdf:RDF xmlns:dc="http://purl.org/dc/elements/1.1/" xmlns:cc="http://creativecommons.org/ns#" xmlns:rdf="http://www.w3.org/1999/02/22-rdf-syntax-ns#">
   <cc:Work>
    <dc:type rdf:resource="http://purl.org/dc/dcmitype/StillImage"/>
    <dc:date>2025-12-10T11:36:20.201187</dc:date>
    <dc:format>image/svg+xml</dc:format>
    <dc:creator>
     <cc:Agent>
      <dc:title>Matplotlib v3.10.7, https://matplotlib.org/</dc:title>
     </cc:Agent>
    </dc:creator>
   </cc:Work>
  </rdf:RDF>
 </metadata>
 <defs>
  <style type="text/css">*{stroke-linejoin: round; stroke-linecap: butt}</style>
 </defs>
 <g id="figure_1">
  <g id="patch_1">
   <path d="M 0 360 
L 864 360 
L 864 0 
L 0 0 
z
" style="fill: #ffffff"/>
  </g>
  <g id="axes_1">
   <g id="patch_2">
    <path d="M 38.27 241.213046 
L 853.2 241.213046 
L 853.2 26.16 
L 38.27 26.16 
z
" style="fill: #ffffff"/>
   </g>
   <g id="patch_3">
    <path d="M 75.312273 241.213046 
L 96.631566 241.213046 
L 96.631566 241.213046 
L 75.312273 241.213046 
z
" clip-path="url(#p78d3f2ce9e)" style="fill: #1f77b4"/>
   </g>
   <g id="patch_4">
    <path d="M 101.96139 241.213046 
L 123.280683 241.213046 
L 123.280683 241.213046 
L 101.96139 241.213046 
z
" clip-path="url(#p78d3f2ce9e)" style="fill: #1f77b4"/>
   </g>
   <g id="patch_5">
    <path d="M 128.610507 241.213046 
L 149.929801 241.213046 
L 149.929801 241.213046 
L 128.610507 241.213046 
z
" clip-path="url(#p78d3f2ce9e)" style="fill: #1f77b4"/>
   </g>
   <g id="patch_6">
    <path d="M 155.259624 241.213046 
L 176.578918 241.213046 
L 176.578918 241.213046 
L 155.259624 241.213046 
z
" clip-path="url(#p78d3f2ce9e)" style="fill: #1f77b4"/>
   </g>
   <g id="patch_7">
    <path d="M 181.908741 241.213046 
L 203.228035 241.213046 
L 203.228035 241.213046 
L 181.908741 241.213046 
z
" clip-path="url(#p78d3f2ce9e)" style="fill: #1f77b4"/>
   </g>
   <g id="patch_8">
    <path d="M 208.557858 241.213046 
L 229.877152 241.213046 
L 229.877152 241.213046 
L 208.557858 241.213046 
z
" clip-path="url(#p78d3f2ce9e)" style="fill: #1f77b4"/>
   </g>
   <g id="patch_9">
    <path d="M 235.206975 241.213046 
L 256.526269 241.213046 
L 256.526269 241.213046 
L 235.206975 241.213046 
z
" clip-path="url(#p78d3f2ce9e)" style="fill: #1f77b4"/>
   </g>
   <g id="patch_10">
    <path d="M 261.856092 241.213046 
L 283.175386 241.213046 
L 283.175386 241.213046 
L 261.856092 241.213046 
z
" clip-path="url(#p78d3f2ce9e)" style="fill: #1f77b4"/>
   </g>
   <g id="patch_11">
    <path d="M 288.505209 241.213046 
L 309.824503 241.213046 
L 309.824503 241.213046 
L 288.505209 241.213046 
z
" clip-path="url(#p78d3f2ce9e)" style="fill: #1f77b4"/>
   </g>
   <g id="patch_12">
    <path d="M 315.154326 241.213046 
L 336.47362 241.213046 
L 336.47362 241.213046 
L 315.154326 241.213046 
z
" clip-path="url(#p78d3f2ce9e)" style="fill: #1f77b4"/>
   </g>
   <g id="patch_13">
    <path d="M 341.803443 241.213046 
L 363.122737 241.213046 
L 363.122737 241.213046 
L 341.803443 241.213046 
z
" clip-path="url(#p78d3f2ce9e)" style="fill: #1f77b4"/>
   </g>
   <g id="patch_14">
    <path d="M 368.45256 241.213046 
L 389.771854 241.213046 
L 389.771854 241.213046 
L 368.45256 241.213046 
z
" clip-path="url(#p78d3f2ce9e)" style="fill: #1f77b4"/>
   </g>
   <g id="patch_15">
    <path d="M 395.101678 241.213046 
L 416.420971 241.213046 
L 416.420971 168.926308 
L 395.101678 168.926308 
z
" clip-path="url(#p78d3f2ce9e)" style="fill: #1f77b4"/>
   </g>
   <g id="patch_16">
    <path d="M 421.750795 241.213046 
L 443.070088 241.213046 
L 443.070088 193.021887 
L 421.750795 193.021887 
z
" clip-path="url(#p78d3f2ce9e)" style="fill: #1f77b4"/>
   </g>
   <g id="patch_17">
    <path d="M 448.399912 241.213046 
L 469.719205 241.213046 
L 469.719205 60.496201 
L 448.399912 60.496201 
z
" clip-path="url(#p78d3f2ce9e)" style="fill: #1f77b4"/>
   </g>
   <g id="patch_18">
    <path d="M 475.049029 241.213046 
L 496.368322 241.213046 
L 496.368322 241.213046 
L 475.049029 241.213046 
z
" clip-path="url(#p78d3f2ce9e)" style="fill: #1f77b4"/>
   </g>
   <g id="patch_19">
    <path d="M 501.698146 241.213046 
L 523.01744 241.213046 
L 523.01744 241.213046 
L 501.698146 241.213046 
z
" clip-path="url(#p78d3f2ce9e)" style="fill: #1f77b4"/>
   </g>
   <g id="patch_20">
    <path d="M 528.347263 241.213046 
L 549.666557 241.213046 
L 549.666557 241.213046 
L 528.347263 241.213046 
z
" clip-path="url(#p78d3f2ce9e)" style="fill: #1f77b4"/>
   </g>
   <g id="patch_21">
    <path d="M 554.99638 241.213046 
L 576.315674 241.213046 
L 576.315674 241.213046 
L 554.99638 241.213046 
z
" clip-path="url(#p78d3f2ce9e)" style="fill: #1f77b4"/>
   </g>
   <g id="patch_22">
    <path d="M 581.645497 241.213046 
L 602.964791 241.213046 
L 602.964791 241.213046 
L 581.645497 241.213046 
z
" clip-path="url(#p78d3f2ce9e)" style="fill: #1f77b4"/>
   </g>
   <g id="patch_23">
    <path d="M 608.294614 241.213046 
L 629.613908 241.213046 
L 629.613908 241.213046 
L 608.294614 241.213046 
z
" clip-path="url(#p78d3f2ce9e)" style="fill: #1f77b4"/>
   </g>
   <g id="patch_24">
    <path d="M 634.943731 241.213046 
L 656.263025 241.213046 
L 656.263025 241.213046 
L 634.943731 241.213046 
z
" clip-path="url(#p78d3f2ce9e)" style="fill: #1f77b4"/>
   </g>
   <g id="patch_25">
    <path d="M 661.592848 241.213046 
L 682.912142 241.213046 
L 682.912142 241.213046 
L 661.592848 241.213046 
z
" clip-path="url(#p78d3f2ce9e)" style="fill: #1f77b4"/>
   </g>
   <g id="patch_26">
    <path d="M 688.241965 241.213046 
L 709.561259 241.213046 
L 709.561259 168.926308 
L 688.241965 168.926308 
z
" clip-path="url(#p78d3f2ce9e)" style="fill: #1f77b4"/>
   </g>
   <g id="patch_27">
    <path d="M 714.891082 241.213046 
L 736.210376 241.213046 
L 736.210376 241.213046 
L 714.891082 241.213046 
z
" clip-path="url(#p78d3f2ce9e)" style="fill: #1f77b4"/>
   </g>
   <g id="patch_28">
    <path d="M 741.540199 241.213046 
L 762.859493 241.213046 
L 762.859493 60.496201 
L 741.540199 60.496201 
z
" clip-path="url(#p78d3f2ce9e)" style="fill: #1f77b4"/>
   </g>
   <g id="patch_29">
    <path d="M 768.189317 241.213046 
L 789.50861 241.213046 
L 789.50861 241.213046 
L 768.189317 241.213046 
z
" clip-path="url(#p78d3f2ce9e)" style="fill: #1f77b4"/>
   </g>
   <g id="patch_30">
    <path d="M 794.838434 241.213046 
L 816.157727 241.213046 
L 816.157727 241.213046 
L 794.838434 241.213046 
z
" clip-path="url(#p78d3f2ce9e)" style="fill: #1f77b4"/>
   </g>
   <g id="patch_31">
    <path d="M 75.312273 241.213046 
L 96.631566 241.213046 
L 96.631566 180.974097 
L 75.312273 180.974097 
z
" clip-path="url(#p78d3f2ce9e)" style="fill: #ff7f0e"/>
   </g>
   <g id="patch_32">
    <path d="M 101.96139 241.213046 
L 123.280683 241.213046 
L 123.280683 144.830728 
L 101.96139 144.830728 
z
" clip-path="url(#p78d3f2ce9e)" style="fill: #ff7f0e"/>
   </g>
   <g id="patch_33">
    <path d="M 128.610507 241.213046 
L 149.929801 241.213046 
L 149.929801 96.63957 
L 128.610507 96.63957 
z
" clip-path="url(#p78d3f2ce9e)" style="fill: #ff7f0e"/>
   </g>
   <g id="patch_34">
    <path d="M 155.259624 241.213046 
L 176.578918 241.213046 
L 176.578918 48.448411 
L 155.259624 48.448411 
z
" clip-path="url(#p78d3f2ce9e)" style="fill: #ff7f0e"/>
   </g>
   <g id="patch_35">
    <path d="M 181.908741 241.213046 
L 203.228035 241.213046 
L 203.228035 48.448411 
L 181.908741 48.448411 
z
" clip-path="url(#p78d3f2ce9e)" style="fill: #ff7f0e"/>
   </g>
   <g id="patch_36">
    <path d="M 208.557858 241.213046 
L 229.877152 241.213046 
L 229.877152 48.448411 
L 208.557858 48.448411 
z
" clip-path="url(#p78d3f2ce9e)" style="fill: #ff7f0e"/>
   </g>
   <g id="patch_37">
    <path d="M 235.206975 241.213046 
L 256.526269 241.213046 
L 256.526269 48.448411 
L 235.206975 48.448411 
z
" clip-path="url(#p78d3f2ce9e)" style="fill: #ff7f0e"/>
   </g>
   <g id="patch_38">
    <path d="M 261.856092 241.213046 
L 283.175386 241.213046 
L 283.175386 48.448411 
L 261.856092 48.448411 
z
" clip-path="url(#p78d3f2ce9e)" style="fill: #ff7f0e"/>
   </g>
   <g id="patch_39">
    <path d="M 288.505209 241.213046 
L 309.824503 241.213046 
L 309.824503 48.448411 
L 288.505209 48.448411 
z
" clip-path="url(#p78d3f2ce9e)" style="fill: #ff7f0e"/>
   </g>
   <g id="patch_40">
    <path d="M 315.154326 241.213046 
L 336.47362 241.213046 
L 336.47362 48.448411 
L 315.154326 48.448411 
z
" clip-path="url(#p78d3f2ce9e)" style="fill: #ff7f0e"/>
   </g>
   <g id="patch_41">
    <path d="M 341.803443 241.213046 
L 363.122737 241.213046 
L 363.122737 48.448411 
L 341.803443 48.448411 
z
" clip-path="url(#p78d3f2ce9e)" style="fill: #ff7f0e"/>
   </g>
   <g id="patch_42">
    <path d="M 368.45256 241.213046 
L 389.771854 241.213046 
L 389.771854 48.448411 
L 368.45256 48.448411 
z
" clip-path="url(#p78d3f2ce9e)" style="fill: #ff7f0e"/>
   </g>
   <g id="patch_43">
    <path d="M 395.101678 168.926308 
L 416.420971 168.926308 
L 416.420971 48.448411 
L 395.101678 48.448411 
z
" clip-path="url(#p78d3f2ce9e)" style="fill: #ff7f0e"/>
   </g>
   <g id="patch_44">
    <path d="M 421.750795 193.021887 
L 443.070088 193.021887 
L 443.070088 48.448411 
L 421.750795 48.448411 
z
" clip-path="url(#p78d3f2ce9e)" style="fill: #ff7f0e"/>
   </g>
   <g id="patch_45">
    <path d="M 448.399912 60.496201 
L 469.719205 60.496201 
L 469.719205 36.400621 
L 448.399912 36.400621 
z
" clip-path="url(#p78d3f2ce9e)" style="fill: #ff7f0e"/>
   </g>
   <g id="patch_46">
    <path d="M 475.049029 241.213046 
L 496.368322 241.213046 
L 496.368322 36.400621 
L 475.049029 36.400621 
z
" clip-path="url(#p78d3f2ce9e)" style="fill: #ff7f0e"/>
   </g>
   <g id="patch_47">
    <path d="M 501.698146 241.213046 
L 523.01744 241.213046 
L 523.01744 36.400621 
L 501.698146 36.400621 
z
" clip-path="url(#p78d3f2ce9e)" style="fill: #ff7f0e"/>
   </g>
   <g id="patch_48">
    <path d="M 528.347263 241.213046 
L 549.666557 241.213046 
L 549.666557 36.400621 
L 528.347263 36.400621 
z
" clip-path="url(#p78d3f2ce9e)" style="fill: #ff7f0e"/>
   </g>
   <g id="patch_49">
    <path d="M 554.99638 241.213046 
L 576.315674 241.213046 
L 576.315674 36.400621 
L 554.99638 36.400621 
z
" clip-path="url(#p78d3f2ce9e)" style="fill: #ff7f0e"/>
   </g>
   <g id="patch_50">
    <path d="M 581.645497 241.213046 
L 602.964791 241.213046 
L 602.964791 36.400621 
L 581.645497 36.400621 
z
" clip-path="url(#p78d3f2ce9e)" style="fill: #ff7f0e"/>
   </g>
   <g id="patch_51">
    <path d="M 608.294614 241.213046 
L 629.613908 241.213046 
L 629.613908 36.400621 
L 608.294614 36.400621 
z
" clip-path="url(#p78d3f2ce9e)" style="fill: #ff7f0e"/>
   </g>
   <g id="patch_52">
    <path d="M 634.943731 241.213046 
L 656.263025 241.213046 
L 656.263025 36.400621 
L 634.943731 36.400621 
z
" clip-path="url(#p78d3f2ce9e)" style="fill: #ff7f0e"/>
   </g>
   <g id="patch_53">
    <path d="M 661.592848 241.213046 
L 682.912142 241.213046 
L 682.912142 36.400621 
L 661.592848 36.400621 
z
" clip-path="url(#p78d3f2ce9e)" style="fill: #ff7f0e"/>
   </g>
   <g id="patch_54">
    <path d="M 688.241965 168.926308 
L 709.561259 168.926308 
L 709.561259 36.400621 
L 688.241965 36.400621 
z
" clip-path="url(#p78d3f2ce9e)" style="fill: #ff7f0e"/>
   </g>
   <g id="patch_55">
    <path d="M 714.891082 241.213046 
L 736.210376 241.213046 
L 736.210376 36.400621 
L 714.891082 36.400621 
z
" clip-path="url(#p78d3f2ce9e)" style="fill: #ff7f0e"/>
   </g>
   <g id="patch_56">
    <path d="M 741.540199 60.496201 
L 762.859493 60.496201 
L 762.859493 36.400621 
L 741.540199 36.400621 
z
" clip-path="url(#p78d3f2ce9e)" style="fill: #ff7f0e"/>
   </g>
   <g id="patch_57">
    <path d="M 768.189317 241.213046 
L 789.50861 241.213046 
L 789.50861 36.400621 
L 768.189317 36.400621 
z
" clip-path="url(#p78d3f2ce9e)" style="fill: #ff7f0e"/>
   </g>
   <g id="patch_58">
    <path d="M 794.838434 241.213046 
L 816.157727 241.213046 
L 816.157727 36.400621 
L 794.838434 36.400621 
z
" clip-path="url(#p78d3f2ce9e)" style="fill: #ff7f0e"/>
   </g>
   <g id="matplotlib.axis_1">
    <g id="xtick_1">
     <g id="line2d_1">
      <defs>
       <path id="m9e5e52a03e" d="M 0 0 
L 0 3.5 
" style="stroke: #000000; stroke-width: 0.8"/>
      </defs>
      <g>
       <use xlink:href="#m9e5e52a03e" x="85.97192" y="241.213046" style="stroke: #000000; stroke-width: 0.8"/>
      </g>
     </g>
     <g id="text_1">
      <!-- Ephraim Eshak -->
      <g transform="translate(46.808357 316.726013) rotate(-60) scale(0.1 -0.1)">
       <defs>
        <path id="DejaVuSans-45" d="M 628 4666 
L 3578 4666 
L 3578 4134 
L 1259 4134 
L 1259 2753 
L 3481 2753 
L 3481 2222 
L 1259 2222 
L 1259 531 
L 3634 531 
L 3634 0 
L 628 0 
L 628 4666 
z
" transform="scale(0.015625)"/>
        <path id="DejaVuSans-70" d="M 1159 525 
L 1159 -1331 
L 581 -1331 
L 581 3500 
L 1159 3500 
L 1159 2969 
Q 1341 3281 1617 3432 
Q 1894 3584 2278 3584 
Q 2916 3584 3314 3078 
Q 3713 2572 3713 1747 
Q 3713 922 3314 415 
Q 2916 -91 2278 -91 
Q 1894 -91 1617 61 
Q 1341 213 1159 525 
z
M 3116 1747 
Q 3116 2381 2855 2742 
Q 2594 3103 2138 3103 
Q 1681 3103 1420 2742 
Q 1159 2381 1159 1747 
Q 1159 1113 1420 752 
Q 1681 391 2138 391 
Q 2594 391 2855 752 
Q 3116 1113 3116 1747 
z
" transform="scale(0.015625)"/>
        <path id="DejaVuSans-68" d="M 3513 2113 
L 3513 0 
L 2938 0 
L 2938 2094 
Q 2938 2591 2744 2837 
Q 2550 3084 2163 3084 
Q 1697 3084 1428 2787 
Q 1159 2491 1159 1978 
L 1159 0 
L 581 0 
L 581 4863 
L 1159 4863 
L 1159 2956 
Q 1366 3272 1645 3428 
Q 1925 3584 2291 3584 
Q 2894 3584 3203 3211 
Q 3513 2838 3513 2113 
z
" transform="scale(0.015625)"/>
        <path id="DejaVuSans-72" d="M 2631 2963 
Q 2534 3019 2420 3045 
Q 2306 3072 2169 3072 
Q 1681 3072 1420 2755 
Q 1159 2438 1159 1844 
L 1159 0 
L 581 0 
L 581 3500 
L 1159 3500 
L 1159 2956 
Q 1341 3275 1631 3429 
Q 1922 3584 2338 3584 
Q 2397 3584 2469 3576 
Q 2541 3569 2628 3553 
L 2631 2963 
z
" transform="scale(0.015625)"/>
        <path id="DejaVuSans-61" d="M 2194 1759 
Q 1497 1759 1228 1600 
Q 959 1441 959 1056 
Q 959 750 1161 570 
Q 1363 391 1709 391 
Q 2188 391 2477 730 
Q 2766 1069 2766 1631 
L 2766 1759 
L 2194 1759 
z
M 3341 1997 
L 3341 0 
L 2766 0 
L 2766 531 
Q 2569 213 2275 61 
Q 1981 -91 1556 -91 
Q 1019 -91 701 211 
Q 384 513 384 1019 
Q 384 1609 779 1909 
Q 1175 2209 1959 2209 
L 2766 2209 
L 2766 2266 
Q 2766 2663 2505 2880 
Q 2244 3097 1772 3097 
Q 1472 3097 1187 3025 
Q 903 2953 641 2809 
L 641 3341 
Q 956 3463 1253 3523 
Q 1550 3584 1831 3584 
Q 2591 3584 2966 3190 
Q 3341 2797 3341 1997 
z
" transform="scale(0.015625)"/>
        <path id="DejaVuSans-69" d="M 603 3500 
L 1178 3500 
L 1178 0 
L 603 0 
L 603 3500 
z
M 603 4863 
L 1178 4863 
L 1178 4134 
L 603 4134 
L 603 4863 
z
" transform="scale(0.015625)"/>
        <path id="DejaVuSans-6d" d="M 3328 2828 
Q 3544 3216 3844 3400 
Q 4144 3584 4550 3584 
Q 5097 3584 5394 3201 
Q 5691 2819 5691 2113 
L 5691 0 
L 5113 0 
L 5113 2094 
Q 5113 2597 4934 2840 
Q 4756 3084 4391 3084 
Q 3944 3084 3684 2787 
Q 3425 2491 3425 1978 
L 3425 0 
L 2847 0 
L 2847 2094 
Q 2847 2600 2669 2842 
Q 2491 3084 2119 3084 
Q 1678 3084 1418 2786 
Q 1159 2488 1159 1978 
L 1159 0 
L 581 0 
L 581 3500 
L 1159 3500 
L 1159 2956 
Q 1356 3278 1631 3431 
Q 1906 3584 2284 3584 
Q 2666 3584 2933 3390 
Q 3200 3197 3328 2828 
z
" transform="scale(0.015625)"/>
        <path id="DejaVuSans-20" transform="scale(0.015625)"/>
        <path id="DejaVuSans-73" d="M 2834 3397 
L 2834 2853 
Q 2591 2978 2328 3040 
Q 2066 3103 1784 3103 
Q 1356 3103 1142 2972 
Q 928 2841 928 2578 
Q 928 2378 1081 2264 
Q 1234 2150 1697 2047 
L 1894 2003 
Q 2506 1872 2764 1633 
Q 3022 1394 3022 966 
Q 3022 478 2636 193 
Q 2250 -91 1575 -91 
Q 1294 -91 989 -36 
Q 684 19 347 128 
L 347 722 
Q 666 556 975 473 
Q 1284 391 1588 391 
Q 1994 391 2212 530 
Q 2431 669 2431 922 
Q 2431 1156 2273 1281 
Q 2116 1406 1581 1522 
L 1381 1569 
Q 847 1681 609 1914 
Q 372 2147 372 2553 
Q 372 3047 722 3315 
Q 1072 3584 1716 3584 
Q 2034 3584 2315 3537 
Q 2597 3491 2834 3397 
z
" transform="scale(0.015625)"/>
        <path id="DejaVuSans-6b" d="M 581 4863 
L 1159 4863 
L 1159 1991 
L 2875 3500 
L 3609 3500 
L 1753 1863 
L 3688 0 
L 2938 0 
L 1159 1709 
L 1159 0 
L 581 0 
L 581 4863 
z
" transform="scale(0.015625)"/>
       </defs>
       <use xlink:href="#DejaVuSans-45"/>
       <use xlink:href="#DejaVuSans-70" transform="translate(63.183594 0)"/>
       <use xlink:href="#DejaVuSans-68" transform="translate(126.660156 0)"/>
       <use xlink:href="#DejaVuSans-72" transform="translate(190.039062 0)"/>
       <use xlink:href="#DejaVuSans-61" transform="translate(231.152344 0)"/>
       <use xlink:href="#DejaVuSans-69" transform="translate(292.431641 0)"/>
       <use xlink:href="#DejaVuSans-6d" transform="translate(320.214844 0)"/>
       <use xlink:href="#DejaVuSans-20" transform="translate(417.626953 0)"/>
       <use xlink:href="#DejaVuSans-45" transform="translate(449.414062 0)"/>
       <use xlink:href="#DejaVuSans-73" transform="translate(512.597656 0)"/>
       <use xlink:href="#DejaVuSans-68" transform="translate(564.697266 0)"/>
       <use xlink:href="#DejaVuSans-61" transform="translate(628.076172 0)"/>
       <use xlink:href="#DejaVuSans-6b" transform="translate(689.355469 0)"/>
      </g>
     </g>
    </g>
    <g id="xtick_2">
     <g id="line2d_2">
      <g>
       <use xlink:href="#m9e5e52a03e" x="112.621037" y="241.213046" style="stroke: #000000; stroke-width: 0.8"/>
      </g>
     </g>
     <g id="text_2">
      <!-- Anna Brzoza -->
      <g transform="translate(79.551224 306.171328) rotate(-60) scale(0.1 -0.1)">
       <defs>
        <path id="DejaVuSans-41" d="M 2188 4044 
L 1331 1722 
L 3047 1722 
L 2188 4044 
z
M 1831 4666 
L 2547 4666 
L 4325 0 
L 3669 0 
L 3244 1197 
L 1141 1197 
L 716 0 
L 50 0 
L 1831 4666 
z
" transform="scale(0.015625)"/>
        <path id="DejaVuSans-6e" d="M 3513 2113 
L 3513 0 
L 2938 0 
L 2938 2094 
Q 2938 2591 2744 2837 
Q 2550 3084 2163 3084 
Q 1697 3084 1428 2787 
Q 1159 2491 1159 1978 
L 1159 0 
L 581 0 
L 581 3500 
L 1159 3500 
L 1159 2956 
Q 1366 3272 1645 3428 
Q 1925 3584 2291 3584 
Q 2894 3584 3203 3211 
Q 3513 2838 3513 2113 
z
" transform="scale(0.015625)"/>
        <path id="DejaVuSans-42" d="M 1259 2228 
L 1259 519 
L 2272 519 
Q 2781 519 3026 730 
Q 3272 941 3272 1375 
Q 3272 1813 3026 2020 
Q 2781 2228 2272 2228 
L 1259 2228 
z
M 1259 4147 
L 1259 2741 
L 2194 2741 
Q 2656 2741 2882 2914 
Q 3109 3088 3109 3444 
Q 3109 3797 2882 3972 
Q 2656 4147 2194 4147 
L 1259 4147 
z
M 628 4666 
L 2241 4666 
Q 2963 4666 3353 4366 
Q 3744 4066 3744 3513 
Q 3744 3084 3544 2831 
Q 3344 2578 2956 2516 
Q 3422 2416 3680 2098 
Q 3938 1781 3938 1306 
Q 3938 681 3513 340 
Q 3088 0 2303 0 
L 628 0 
L 628 4666 
z
" transform="scale(0.015625)"/>
        <path id="DejaVuSans-7a" d="M 353 3500 
L 3084 3500 
L 3084 2975 
L 922 459 
L 3084 459 
L 3084 0 
L 275 0 
L 275 525 
L 2438 3041 
L 353 3041 
L 353 3500 
z
" transform="scale(0.015625)"/>
        <path id="DejaVuSans-6f" d="M 1959 3097 
Q 1497 3097 1228 2736 
Q 959 2375 959 1747 
Q 959 1119 1226 758 
Q 1494 397 1959 397 
Q 2419 397 2687 759 
Q 2956 1122 2956 1747 
Q 2956 2369 2687 2733 
Q 2419 3097 1959 3097 
z
M 1959 3584 
Q 2709 3584 3137 3096 
Q 3566 2609 3566 1747 
Q 3566 888 3137 398 
Q 2709 -91 1959 -91 
Q 1206 -91 779 398 
Q 353 888 353 1747 
Q 353 2609 779 3096 
Q 1206 3584 1959 3584 
z
" transform="scale(0.015625)"/>
       </defs>
       <use xlink:href="#DejaVuSans-41"/>
       <use xlink:href="#DejaVuSans-6e" transform="translate(68.408203 0)"/>
       <use xlink:href="#DejaVuSans-6e" transform="translate(131.787109 0)"/>
       <use xlink:href="#DejaVuSans-61" transform="translate(195.166016 0)"/>
       <use xlink:href="#DejaVuSans-20" transform="translate(256.445312 0)"/>
       <use xlink:href="#DejaVuSans-42" transform="translate(288.232422 0)"/>
       <use xlink:href="#DejaVuSans-72" transform="translate(356.835938 0)"/>
       <use xlink:href="#DejaVuSans-7a" transform="translate(397.949219 0)"/>
       <use xlink:href="#DejaVuSans-6f" transform="translate(450.439453 0)"/>
       <use xlink:href="#DejaVuSans-7a" transform="translate(511.621094 0)"/>
       <use xlink:href="#DejaVuSans-61" transform="translate(564.111328 0)"/>
      </g>
     </g>
    </g>
    <g id="xtick_3">
     <g id="line2d_3">
      <g>
       <use xlink:href="#m9e5e52a03e" x="139.270154" y="241.213046" style="stroke: #000000; stroke-width: 0.8"/>
      </g>
     </g>
     <g id="text_3">
      <!-- Damian Karas -->
      <g transform="translate(102.494091 312.590741) rotate(-60) scale(0.1 -0.1)">
       <defs>
        <path id="DejaVuSans-44" d="M 1259 4147 
L 1259 519 
L 2022 519 
Q 2988 519 3436 956 
Q 3884 1394 3884 2338 
Q 3884 3275 3436 3711 
Q 2988 4147 2022 4147 
L 1259 4147 
z
M 628 4666 
L 1925 4666 
Q 3281 4666 3915 4102 
Q 4550 3538 4550 2338 
Q 4550 1131 3912 565 
Q 3275 0 1925 0 
L 628 0 
L 628 4666 
z
" transform="scale(0.015625)"/>
        <path id="DejaVuSans-4b" d="M 628 4666 
L 1259 4666 
L 1259 2694 
L 3353 4666 
L 4166 4666 
L 1850 2491 
L 4331 0 
L 3500 0 
L 1259 2247 
L 1259 0 
L 628 0 
L 628 4666 
z
" transform="scale(0.015625)"/>
       </defs>
       <use xlink:href="#DejaVuSans-44"/>
       <use xlink:href="#DejaVuSans-61" transform="translate(77.001953 0)"/>
       <use xlink:href="#DejaVuSans-6d" transform="translate(138.28125 0)"/>
       <use xlink:href="#DejaVuSans-69" transform="translate(235.693359 0)"/>
       <use xlink:href="#DejaVuSans-61" transform="translate(263.476562 0)"/>
       <use xlink:href="#DejaVuSans-6e" transform="translate(324.755859 0)"/>
       <use xlink:href="#DejaVuSans-20" transform="translate(388.134766 0)"/>
       <use xlink:href="#DejaVuSans-4b" transform="translate(419.921875 0)"/>
       <use xlink:href="#DejaVuSans-61" transform="translate(483.748047 0)"/>
       <use xlink:href="#DejaVuSans-72" transform="translate(545.027344 0)"/>
       <use xlink:href="#DejaVuSans-61" transform="translate(586.140625 0)"/>
       <use xlink:href="#DejaVuSans-73" transform="translate(647.419922 0)"/>
      </g>
     </g>
    </g>
    <g id="xtick_4">
     <g id="line2d_4">
      <g>
       <use xlink:href="#m9e5e52a03e" x="165.919271" y="241.213046" style="stroke: #000000; stroke-width: 0.8"/>
      </g>
     </g>
     <g id="text_4">
      <!-- Patrycja Niemczuk -->
      <g transform="translate(117.983834 331.919346) rotate(-60) scale(0.1 -0.1)">
       <defs>
        <path id="DejaVuSans-50" d="M 1259 4147 
L 1259 2394 
L 2053 2394 
Q 2494 2394 2734 2622 
Q 2975 2850 2975 3272 
Q 2975 3691 2734 3919 
Q 2494 4147 2053 4147 
L 1259 4147 
z
M 628 4666 
L 2053 4666 
Q 2838 4666 3239 4311 
Q 3641 3956 3641 3272 
Q 3641 2581 3239 2228 
Q 2838 1875 2053 1875 
L 1259 1875 
L 1259 0 
L 628 0 
L 628 4666 
z
" transform="scale(0.015625)"/>
        <path id="DejaVuSans-74" d="M 1172 4494 
L 1172 3500 
L 2356 3500 
L 2356 3053 
L 1172 3053 
L 1172 1153 
Q 1172 725 1289 603 
Q 1406 481 1766 481 
L 2356 481 
L 2356 0 
L 1766 0 
Q 1100 0 847 248 
Q 594 497 594 1153 
L 594 3053 
L 172 3053 
L 172 3500 
L 594 3500 
L 594 4494 
L 1172 4494 
z
" transform="scale(0.015625)"/>
        <path id="DejaVuSans-79" d="M 2059 -325 
Q 1816 -950 1584 -1140 
Q 1353 -1331 966 -1331 
L 506 -1331 
L 506 -850 
L 844 -850 
Q 1081 -850 1212 -737 
Q 1344 -625 1503 -206 
L 1606 56 
L 191 3500 
L 800 3500 
L 1894 763 
L 2988 3500 
L 3597 3500 
L 2059 -325 
z
" transform="scale(0.015625)"/>
        <path id="DejaVuSans-63" d="M 3122 3366 
L 3122 2828 
Q 2878 2963 2633 3030 
Q 2388 3097 2138 3097 
Q 1578 3097 1268 2742 
Q 959 2388 959 1747 
Q 959 1106 1268 751 
Q 1578 397 2138 397 
Q 2388 397 2633 464 
Q 2878 531 3122 666 
L 3122 134 
Q 2881 22 2623 -34 
Q 2366 -91 2075 -91 
Q 1284 -91 818 406 
Q 353 903 353 1747 
Q 353 2603 823 3093 
Q 1294 3584 2113 3584 
Q 2378 3584 2631 3529 
Q 2884 3475 3122 3366 
z
" transform="scale(0.015625)"/>
        <path id="DejaVuSans-6a" d="M 603 3500 
L 1178 3500 
L 1178 -63 
Q 1178 -731 923 -1031 
Q 669 -1331 103 -1331 
L -116 -1331 
L -116 -844 
L 38 -844 
Q 366 -844 484 -692 
Q 603 -541 603 -63 
L 603 3500 
z
M 603 4863 
L 1178 4863 
L 1178 4134 
L 603 4134 
L 603 4863 
z
" transform="scale(0.015625)"/>
        <path id="DejaVuSans-4e" d="M 628 4666 
L 1478 4666 
L 3547 763 
L 3547 4666 
L 4159 4666 
L 4159 0 
L 3309 0 
L 1241 3903 
L 1241 0 
L 628 0 
L 628 4666 
z
" transform="scale(0.015625)"/>
        <path id="DejaVuSans-65" d="M 3597 1894 
L 3597 1613 
L 953 1613 
Q 991 1019 1311 708 
Q 1631 397 2203 397 
Q 2534 397 2845 478 
Q 3156 559 3463 722 
L 3463 178 
Q 3153 47 2828 -22 
Q 2503 -91 2169 -91 
Q 1331 -91 842 396 
Q 353 884 353 1716 
Q 353 2575 817 3079 
Q 1281 3584 2069 3584 
Q 2775 3584 3186 3129 
Q 3597 2675 3597 1894 
z
M 3022 2063 
Q 3016 2534 2758 2815 
Q 2500 3097 2075 3097 
Q 1594 3097 1305 2825 
Q 1016 2553 972 2059 
L 3022 2063 
z
" transform="scale(0.015625)"/>
        <path id="DejaVuSans-75" d="M 544 1381 
L 544 3500 
L 1119 3500 
L 1119 1403 
Q 1119 906 1312 657 
Q 1506 409 1894 409 
Q 2359 409 2629 706 
Q 2900 1003 2900 1516 
L 2900 3500 
L 3475 3500 
L 3475 0 
L 2900 0 
L 2900 538 
Q 2691 219 2414 64 
Q 2138 -91 1772 -91 
Q 1169 -91 856 284 
Q 544 659 544 1381 
z
M 1991 3584 
L 1991 3584 
z
" transform="scale(0.015625)"/>
       </defs>
       <use xlink:href="#DejaVuSans-50"/>
       <use xlink:href="#DejaVuSans-61" transform="translate(55.802734 0)"/>
       <use xlink:href="#DejaVuSans-74" transform="translate(117.082031 0)"/>
       <use xlink:href="#DejaVuSans-72" transform="translate(156.291016 0)"/>
       <use xlink:href="#DejaVuSans-79" transform="translate(197.404297 0)"/>
       <use xlink:href="#DejaVuSans-63" transform="translate(256.583984 0)"/>
       <use xlink:href="#DejaVuSans-6a" transform="translate(311.564453 0)"/>
       <use xlink:href="#DejaVuSans-61" transform="translate(339.347656 0)"/>
       <use xlink:href="#DejaVuSans-20" transform="translate(400.626953 0)"/>
       <use xlink:href="#DejaVuSans-4e" transform="translate(432.414062 0)"/>
       <use xlink:href="#DejaVuSans-69" transform="translate(507.21875 0)"/>
       <use xlink:href="#DejaVuSans-65" transform="translate(535.001953 0)"/>
       <use xlink:href="#DejaVuSans-6d" transform="translate(596.525391 0)"/>
       <use xlink:href="#DejaVuSans-63" transform="translate(693.9375 0)"/>
       <use xlink:href="#DejaVuSans-7a" transform="translate(748.917969 0)"/>
       <use xlink:href="#DejaVuSans-75" transform="translate(801.408203 0)"/>
       <use xlink:href="#DejaVuSans-6b" transform="translate(864.787109 0)"/>
      </g>
     </g>
    </g>
    <g id="xtick_5">
     <g id="line2d_5">
      <g>
       <use xlink:href="#m9e5e52a03e" x="192.568388" y="241.213046" style="stroke: #000000; stroke-width: 0.8"/>
      </g>
     </g>
     <g id="text_5">
      <!-- Maria Merchel -->
      <g transform="translate(155.574357 312.968274) rotate(-60) scale(0.1 -0.1)">
       <defs>
        <path id="DejaVuSans-4d" d="M 628 4666 
L 1569 4666 
L 2759 1491 
L 3956 4666 
L 4897 4666 
L 4897 0 
L 4281 0 
L 4281 4097 
L 3078 897 
L 2444 897 
L 1241 4097 
L 1241 0 
L 628 0 
L 628 4666 
z
" transform="scale(0.015625)"/>
        <path id="DejaVuSans-6c" d="M 603 4863 
L 1178 4863 
L 1178 0 
L 603 0 
L 603 4863 
z
" transform="scale(0.015625)"/>
       </defs>
       <use xlink:href="#DejaVuSans-4d"/>
       <use xlink:href="#DejaVuSans-61" transform="translate(86.279297 0)"/>
       <use xlink:href="#DejaVuSans-72" transform="translate(147.558594 0)"/>
       <use xlink:href="#DejaVuSans-69" transform="translate(188.671875 0)"/>
       <use xlink:href="#DejaVuSans-61" transform="translate(216.455078 0)"/>
       <use xlink:href="#DejaVuSans-20" transform="translate(277.734375 0)"/>
       <use xlink:href="#DejaVuSans-4d" transform="translate(309.521484 0)"/>
       <use xlink:href="#DejaVuSans-65" transform="translate(395.800781 0)"/>
       <use xlink:href="#DejaVuSans-72" transform="translate(457.324219 0)"/>
       <use xlink:href="#DejaVuSans-63" transform="translate(496.1875 0)"/>
       <use xlink:href="#DejaVuSans-68" transform="translate(551.167969 0)"/>
       <use xlink:href="#DejaVuSans-65" transform="translate(614.546875 0)"/>
       <use xlink:href="#DejaVuSans-6c" transform="translate(676.070312 0)"/>
      </g>
     </g>
    </g>
    <g id="xtick_6">
     <g id="line2d_6">
      <g>
       <use xlink:href="#m9e5e52a03e" x="219.217505" y="241.213046" style="stroke: #000000; stroke-width: 0.8"/>
      </g>
     </g>
     <g id="text_6">
      <!-- Nina Andrzejczyk -->
      <g transform="translate(174.328161 326.643357) rotate(-60) scale(0.1 -0.1)">
       <defs>
        <path id="DejaVuSans-64" d="M 2906 2969 
L 2906 4863 
L 3481 4863 
L 3481 0 
L 2906 0 
L 2906 525 
Q 2725 213 2448 61 
Q 2172 -91 1784 -91 
Q 1150 -91 751 415 
Q 353 922 353 1747 
Q 353 2572 751 3078 
Q 1150 3584 1784 3584 
Q 2172 3584 2448 3432 
Q 2725 3281 2906 2969 
z
M 947 1747 
Q 947 1113 1208 752 
Q 1469 391 1925 391 
Q 2381 391 2643 752 
Q 2906 1113 2906 1747 
Q 2906 2381 2643 2742 
Q 2381 3103 1925 3103 
Q 1469 3103 1208 2742 
Q 947 2381 947 1747 
z
" transform="scale(0.015625)"/>
       </defs>
       <use xlink:href="#DejaVuSans-4e"/>
       <use xlink:href="#DejaVuSans-69" transform="translate(74.804688 0)"/>
       <use xlink:href="#DejaVuSans-6e" transform="translate(102.587891 0)"/>
       <use xlink:href="#DejaVuSans-61" transform="translate(165.966797 0)"/>
       <use xlink:href="#DejaVuSans-20" transform="translate(227.246094 0)"/>
       <use xlink:href="#DejaVuSans-41" transform="translate(259.033203 0)"/>
       <use xlink:href="#DejaVuSans-6e" transform="translate(327.441406 0)"/>
       <use xlink:href="#DejaVuSans-64" transform="translate(390.820312 0)"/>
       <use xlink:href="#DejaVuSans-72" transform="translate(454.296875 0)"/>
       <use xlink:href="#DejaVuSans-7a" transform="translate(495.410156 0)"/>
       <use xlink:href="#DejaVuSans-65" transform="translate(547.900391 0)"/>
       <use xlink:href="#DejaVuSans-6a" transform="translate(609.423828 0)"/>
       <use xlink:href="#DejaVuSans-63" transform="translate(637.207031 0)"/>
       <use xlink:href="#DejaVuSans-7a" transform="translate(692.1875 0)"/>
       <use xlink:href="#DejaVuSans-79" transform="translate(744.677734 0)"/>
       <use xlink:href="#DejaVuSans-6b" transform="translate(803.857422 0)"/>
      </g>
     </g>
    </g>
    <g id="xtick_7">
     <g id="line2d_7">
      <g>
       <use xlink:href="#m9e5e52a03e" x="245.866622" y="241.213046" style="stroke: #000000; stroke-width: 0.8"/>
      </g>
     </g>
     <g id="text_7">
      <!-- Alicja Nowak -->
      <g transform="translate(212.227279 307.157785) rotate(-60) scale(0.1 -0.1)">
       <defs>
        <path id="DejaVuSans-77" d="M 269 3500 
L 844 3500 
L 1563 769 
L 2278 3500 
L 2956 3500 
L 3675 769 
L 4391 3500 
L 4966 3500 
L 4050 0 
L 3372 0 
L 2619 2869 
L 1863 0 
L 1184 0 
L 269 3500 
z
" transform="scale(0.015625)"/>
       </defs>
       <use xlink:href="#DejaVuSans-41"/>
       <use xlink:href="#DejaVuSans-6c" transform="translate(68.408203 0)"/>
       <use xlink:href="#DejaVuSans-69" transform="translate(96.191406 0)"/>
       <use xlink:href="#DejaVuSans-63" transform="translate(123.974609 0)"/>
       <use xlink:href="#DejaVuSans-6a" transform="translate(178.955078 0)"/>
       <use xlink:href="#DejaVuSans-61" transform="translate(206.738281 0)"/>
       <use xlink:href="#DejaVuSans-20" transform="translate(268.017578 0)"/>
       <use xlink:href="#DejaVuSans-4e" transform="translate(299.804688 0)"/>
       <use xlink:href="#DejaVuSans-6f" transform="translate(374.609375 0)"/>
       <use xlink:href="#DejaVuSans-77" transform="translate(435.791016 0)"/>
       <use xlink:href="#DejaVuSans-61" transform="translate(517.578125 0)"/>
       <use xlink:href="#DejaVuSans-6b" transform="translate(578.857422 0)"/>
      </g>
     </g>
    </g>
    <g id="xtick_8">
     <g id="line2d_8">
      <g>
       <use xlink:href="#m9e5e52a03e" x="272.515739" y="241.213046" style="stroke: #000000; stroke-width: 0.8"/>
      </g>
     </g>
     <g id="text_8">
      <!-- Damian Bagnowski -->
      <g transform="translate(222.844364 334.926078) rotate(-60) scale(0.1 -0.1)">
       <defs>
        <path id="DejaVuSans-67" d="M 2906 1791 
Q 2906 2416 2648 2759 
Q 2391 3103 1925 3103 
Q 1463 3103 1205 2759 
Q 947 2416 947 1791 
Q 947 1169 1205 825 
Q 1463 481 1925 481 
Q 2391 481 2648 825 
Q 2906 1169 2906 1791 
z
M 3481 434 
Q 3481 -459 3084 -895 
Q 2688 -1331 1869 -1331 
Q 1566 -1331 1297 -1286 
Q 1028 -1241 775 -1147 
L 775 -588 
Q 1028 -725 1275 -790 
Q 1522 -856 1778 -856 
Q 2344 -856 2625 -561 
Q 2906 -266 2906 331 
L 2906 616 
Q 2728 306 2450 153 
Q 2172 0 1784 0 
Q 1141 0 747 490 
Q 353 981 353 1791 
Q 353 2603 747 3093 
Q 1141 3584 1784 3584 
Q 2172 3584 2450 3431 
Q 2728 3278 2906 2969 
L 2906 3500 
L 3481 3500 
L 3481 434 
z
" transform="scale(0.015625)"/>
       </defs>
       <use xlink:href="#DejaVuSans-44"/>
       <use xlink:href="#DejaVuSans-61" transform="translate(77.001953 0)"/>
       <use xlink:href="#DejaVuSans-6d" transform="translate(138.28125 0)"/>
       <use xlink:href="#DejaVuSans-69" transform="translate(235.693359 0)"/>
       <use xlink:href="#DejaVuSans-61" transform="translate(263.476562 0)"/>
       <use xlink:href="#DejaVuSans-6e" transform="translate(324.755859 0)"/>
       <use xlink:href="#DejaVuSans-20" transform="translate(388.134766 0)"/>
       <use xlink:href="#DejaVuSans-42" transform="translate(419.921875 0)"/>
       <use xlink:href="#DejaVuSans-61" transform="translate(488.525391 0)"/>
       <use xlink:href="#DejaVuSans-67" transform="translate(549.804688 0)"/>
       <use xlink:href="#DejaVuSans-6e" transform="translate(613.28125 0)"/>
       <use xlink:href="#DejaVuSans-6f" transform="translate(676.660156 0)"/>
       <use xlink:href="#DejaVuSans-77" transform="translate(737.841797 0)"/>
       <use xlink:href="#DejaVuSans-73" transform="translate(819.628906 0)"/>
       <use xlink:href="#DejaVuSans-6b" transform="translate(871.728516 0)"/>
       <use xlink:href="#DejaVuSans-69" transform="translate(929.638672 0)"/>
      </g>
     </g>
    </g>
    <g id="xtick_9">
     <g id="line2d_9">
      <g>
       <use xlink:href="#m9e5e52a03e" x="299.164856" y="241.213046" style="stroke: #000000; stroke-width: 0.8"/>
      </g>
     </g>
     <g id="text_9">
      <!-- Anna Sidorowicz -->
      <g transform="translate(256.302075 323.133247) rotate(-60) scale(0.1 -0.1)">
       <defs>
        <path id="DejaVuSans-53" d="M 3425 4513 
L 3425 3897 
Q 3066 4069 2747 4153 
Q 2428 4238 2131 4238 
Q 1616 4238 1336 4038 
Q 1056 3838 1056 3469 
Q 1056 3159 1242 3001 
Q 1428 2844 1947 2747 
L 2328 2669 
Q 3034 2534 3370 2195 
Q 3706 1856 3706 1288 
Q 3706 609 3251 259 
Q 2797 -91 1919 -91 
Q 1588 -91 1214 -16 
Q 841 59 441 206 
L 441 856 
Q 825 641 1194 531 
Q 1563 422 1919 422 
Q 2459 422 2753 634 
Q 3047 847 3047 1241 
Q 3047 1584 2836 1778 
Q 2625 1972 2144 2069 
L 1759 2144 
Q 1053 2284 737 2584 
Q 422 2884 422 3419 
Q 422 4038 858 4394 
Q 1294 4750 2059 4750 
Q 2388 4750 2728 4690 
Q 3069 4631 3425 4513 
z
" transform="scale(0.015625)"/>
       </defs>
       <use xlink:href="#DejaVuSans-41"/>
       <use xlink:href="#DejaVuSans-6e" transform="translate(68.408203 0)"/>
       <use xlink:href="#DejaVuSans-6e" transform="translate(131.787109 0)"/>
       <use xlink:href="#DejaVuSans-61" transform="translate(195.166016 0)"/>
       <use xlink:href="#DejaVuSans-20" transform="translate(256.445312 0)"/>
       <use xlink:href="#DejaVuSans-53" transform="translate(288.232422 0)"/>
       <use xlink:href="#DejaVuSans-69" transform="translate(351.708984 0)"/>
       <use xlink:href="#DejaVuSans-64" transform="translate(379.492188 0)"/>
       <use xlink:href="#DejaVuSans-6f" transform="translate(442.96875 0)"/>
       <use xlink:href="#DejaVuSans-72" transform="translate(504.150391 0)"/>
       <use xlink:href="#DejaVuSans-6f" transform="translate(543.013672 0)"/>
       <use xlink:href="#DejaVuSans-77" transform="translate(604.195312 0)"/>
       <use xlink:href="#DejaVuSans-69" transform="translate(685.982422 0)"/>
       <use xlink:href="#DejaVuSans-63" transform="translate(713.765625 0)"/>
       <use xlink:href="#DejaVuSans-7a" transform="translate(768.746094 0)"/>
      </g>
     </g>
    </g>
    <g id="xtick_10">
     <g id="line2d_10">
      <g>
       <use xlink:href="#m9e5e52a03e" x="325.813973" y="241.213046" style="stroke: #000000; stroke-width: 0.8"/>
      </g>
     </g>
     <g id="text_10">
      <!-- Diana Siwicka -->
      <g transform="translate(289.225411 312.265982) rotate(-60) scale(0.1 -0.1)">
       <use xlink:href="#DejaVuSans-44"/>
       <use xlink:href="#DejaVuSans-69" transform="translate(77.001953 0)"/>
       <use xlink:href="#DejaVuSans-61" transform="translate(104.785156 0)"/>
       <use xlink:href="#DejaVuSans-6e" transform="translate(166.064453 0)"/>
       <use xlink:href="#DejaVuSans-61" transform="translate(229.443359 0)"/>
       <use xlink:href="#DejaVuSans-20" transform="translate(290.722656 0)"/>
       <use xlink:href="#DejaVuSans-53" transform="translate(322.509766 0)"/>
       <use xlink:href="#DejaVuSans-69" transform="translate(385.986328 0)"/>
       <use xlink:href="#DejaVuSans-77" transform="translate(413.769531 0)"/>
       <use xlink:href="#DejaVuSans-69" transform="translate(495.556641 0)"/>
       <use xlink:href="#DejaVuSans-63" transform="translate(523.339844 0)"/>
       <use xlink:href="#DejaVuSans-6b" transform="translate(578.320312 0)"/>
       <use xlink:href="#DejaVuSans-61" transform="translate(634.480469 0)"/>
      </g>
     </g>
    </g>
    <g id="xtick_11">
     <g id="line2d_11">
      <g>
       <use xlink:href="#m9e5e52a03e" x="352.46309" y="241.213046" style="stroke: #000000; stroke-width: 0.8"/>
      </g>
     </g>
     <g id="text_11">
      <!-- Pawel Wypijewski -->
      <g transform="translate(306.841716 327.911272) rotate(-60) scale(0.1 -0.1)">
       <defs>
        <path id="DejaVuSans-57" d="M 213 4666 
L 850 4666 
L 1831 722 
L 2809 4666 
L 3519 4666 
L 4500 722 
L 5478 4666 
L 6119 4666 
L 4947 0 
L 4153 0 
L 3169 4050 
L 2175 0 
L 1381 0 
L 213 4666 
z
" transform="scale(0.015625)"/>
       </defs>
       <use xlink:href="#DejaVuSans-50"/>
       <use xlink:href="#DejaVuSans-61" transform="translate(55.802734 0)"/>
       <use xlink:href="#DejaVuSans-77" transform="translate(117.082031 0)"/>
       <use xlink:href="#DejaVuSans-65" transform="translate(198.869141 0)"/>
       <use xlink:href="#DejaVuSans-6c" transform="translate(260.392578 0)"/>
       <use xlink:href="#DejaVuSans-20" transform="translate(288.175781 0)"/>
       <use xlink:href="#DejaVuSans-57" transform="translate(319.962891 0)"/>
       <use xlink:href="#DejaVuSans-79" transform="translate(417.089844 0)"/>
       <use xlink:href="#DejaVuSans-70" transform="translate(476.269531 0)"/>
       <use xlink:href="#DejaVuSans-69" transform="translate(539.746094 0)"/>
       <use xlink:href="#DejaVuSans-6a" transform="translate(567.529297 0)"/>
       <use xlink:href="#DejaVuSans-65" transform="translate(595.3125 0)"/>
       <use xlink:href="#DejaVuSans-77" transform="translate(656.835938 0)"/>
       <use xlink:href="#DejaVuSans-73" transform="translate(738.623047 0)"/>
       <use xlink:href="#DejaVuSans-6b" transform="translate(790.722656 0)"/>
       <use xlink:href="#DejaVuSans-69" transform="translate(848.632812 0)"/>
      </g>
     </g>
    </g>
    <g id="xtick_12">
     <g id="line2d_12">
      <g>
       <use xlink:href="#m9e5e52a03e" x="379.112207" y="241.213046" style="stroke: #000000; stroke-width: 0.8"/>
      </g>
     </g>
     <g id="text_12">
      <!-- Marius Latinis -->
      <g transform="translate(342.76427 311.849207) rotate(-60) scale(0.1 -0.1)">
       <defs>
        <path id="DejaVuSans-4c" d="M 628 4666 
L 1259 4666 
L 1259 531 
L 3531 531 
L 3531 0 
L 628 0 
L 628 4666 
z
" transform="scale(0.015625)"/>
       </defs>
       <use xlink:href="#DejaVuSans-4d"/>
       <use xlink:href="#DejaVuSans-61" transform="translate(86.279297 0)"/>
       <use xlink:href="#DejaVuSans-72" transform="translate(147.558594 0)"/>
       <use xlink:href="#DejaVuSans-69" transform="translate(188.671875 0)"/>
       <use xlink:href="#DejaVuSans-75" transform="translate(216.455078 0)"/>
       <use xlink:href="#DejaVuSans-73" transform="translate(279.833984 0)"/>
       <use xlink:href="#DejaVuSans-20" transform="translate(331.933594 0)"/>
       <use xlink:href="#DejaVuSans-4c" transform="translate(363.720703 0)"/>
       <use xlink:href="#DejaVuSans-61" transform="translate(419.433594 0)"/>
       <use xlink:href="#DejaVuSans-74" transform="translate(480.712891 0)"/>
       <use xlink:href="#DejaVuSans-69" transform="translate(519.921875 0)"/>
       <use xlink:href="#DejaVuSans-6e" transform="translate(547.705078 0)"/>
       <use xlink:href="#DejaVuSans-69" transform="translate(611.083984 0)"/>
       <use xlink:href="#DejaVuSans-73" transform="translate(638.867188 0)"/>
      </g>
     </g>
    </g>
    <g id="xtick_13">
     <g id="line2d_13">
      <g>
       <use xlink:href="#m9e5e52a03e" x="405.761324" y="241.213046" style="stroke: #000000; stroke-width: 0.8"/>
      </g>
     </g>
     <g id="text_13">
      <!-- Maciek Oficialski -->
      <g transform="translate(362.317293 324.140002) rotate(-60) scale(0.1 -0.1)">
       <defs>
        <path id="DejaVuSans-4f" d="M 2522 4238 
Q 1834 4238 1429 3725 
Q 1025 3213 1025 2328 
Q 1025 1447 1429 934 
Q 1834 422 2522 422 
Q 3209 422 3611 934 
Q 4013 1447 4013 2328 
Q 4013 3213 3611 3725 
Q 3209 4238 2522 4238 
z
M 2522 4750 
Q 3503 4750 4090 4092 
Q 4678 3434 4678 2328 
Q 4678 1225 4090 567 
Q 3503 -91 2522 -91 
Q 1538 -91 948 565 
Q 359 1222 359 2328 
Q 359 3434 948 4092 
Q 1538 4750 2522 4750 
z
" transform="scale(0.015625)"/>
        <path id="DejaVuSans-66" d="M 2375 4863 
L 2375 4384 
L 1825 4384 
Q 1516 4384 1395 4259 
Q 1275 4134 1275 3809 
L 1275 3500 
L 2222 3500 
L 2222 3053 
L 1275 3053 
L 1275 0 
L 697 0 
L 697 3053 
L 147 3053 
L 147 3500 
L 697 3500 
L 697 3744 
Q 697 4328 969 4595 
Q 1241 4863 1831 4863 
L 2375 4863 
z
" transform="scale(0.015625)"/>
       </defs>
       <use xlink:href="#DejaVuSans-4d"/>
       <use xlink:href="#DejaVuSans-61" transform="translate(86.279297 0)"/>
       <use xlink:href="#DejaVuSans-63" transform="translate(147.558594 0)"/>
       <use xlink:href="#DejaVuSans-69" transform="translate(202.539062 0)"/>
       <use xlink:href="#DejaVuSans-65" transform="translate(230.322266 0)"/>
       <use xlink:href="#DejaVuSans-6b" transform="translate(291.845703 0)"/>
       <use xlink:href="#DejaVuSans-20" transform="translate(349.755859 0)"/>
       <use xlink:href="#DejaVuSans-4f" transform="translate(381.542969 0)"/>
       <use xlink:href="#DejaVuSans-66" transform="translate(460.253906 0)"/>
       <use xlink:href="#DejaVuSans-69" transform="translate(495.458984 0)"/>
       <use xlink:href="#DejaVuSans-63" transform="translate(523.242188 0)"/>
       <use xlink:href="#DejaVuSans-69" transform="translate(578.222656 0)"/>
       <use xlink:href="#DejaVuSans-61" transform="translate(606.005859 0)"/>
       <use xlink:href="#DejaVuSans-6c" transform="translate(667.285156 0)"/>
       <use xlink:href="#DejaVuSans-73" transform="translate(695.068359 0)"/>
       <use xlink:href="#DejaVuSans-6b" transform="translate(747.167969 0)"/>
       <use xlink:href="#DejaVuSans-69" transform="translate(805.078125 0)"/>
      </g>
     </g>
    </g>
    <g id="xtick_14">
     <g id="line2d_14">
      <g>
       <use xlink:href="#m9e5e52a03e" x="432.410441" y="241.213046" style="stroke: #000000; stroke-width: 0.8"/>
      </g>
     </g>
     <g id="text_14">
      <!-- Antoni Domanowski -->
      <g transform="translate(380.803911 338.277867) rotate(-60) scale(0.1 -0.1)">
       <use xlink:href="#DejaVuSans-41"/>
       <use xlink:href="#DejaVuSans-6e" transform="translate(68.408203 0)"/>
       <use xlink:href="#DejaVuSans-74" transform="translate(131.787109 0)"/>
       <use xlink:href="#DejaVuSans-6f" transform="translate(170.996094 0)"/>
       <use xlink:href="#DejaVuSans-6e" transform="translate(232.177734 0)"/>
       <use xlink:href="#DejaVuSans-69" transform="translate(295.556641 0)"/>
       <use xlink:href="#DejaVuSans-20" transform="translate(323.339844 0)"/>
       <use xlink:href="#DejaVuSans-44" transform="translate(355.126953 0)"/>
       <use xlink:href="#DejaVuSans-6f" transform="translate(432.128906 0)"/>
       <use xlink:href="#DejaVuSans-6d" transform="translate(493.310547 0)"/>
       <use xlink:href="#DejaVuSans-61" transform="translate(590.722656 0)"/>
       <use xlink:href="#DejaVuSans-6e" transform="translate(652.001953 0)"/>
       <use xlink:href="#DejaVuSans-6f" transform="translate(715.380859 0)"/>
       <use xlink:href="#DejaVuSans-77" transform="translate(776.5625 0)"/>
       <use xlink:href="#DejaVuSans-73" transform="translate(858.349609 0)"/>
       <use xlink:href="#DejaVuSans-6b" transform="translate(910.449219 0)"/>
       <use xlink:href="#DejaVuSans-69" transform="translate(968.359375 0)"/>
      </g>
     </g>
    </g>
    <g id="xtick_15">
     <g id="line2d_15">
      <g>
       <use xlink:href="#m9e5e52a03e" x="459.059559" y="241.213046" style="stroke: #000000; stroke-width: 0.8"/>
      </g>
     </g>
     <g id="text_15">
      <!-- Daniele Donzello -->
      <g transform="translate(415.038965 325.138637) rotate(-60) scale(0.1 -0.1)">
       <use xlink:href="#DejaVuSans-44"/>
       <use xlink:href="#DejaVuSans-61" transform="translate(77.001953 0)"/>
       <use xlink:href="#DejaVuSans-6e" transform="translate(138.28125 0)"/>
       <use xlink:href="#DejaVuSans-69" transform="translate(201.660156 0)"/>
       <use xlink:href="#DejaVuSans-65" transform="translate(229.443359 0)"/>
       <use xlink:href="#DejaVuSans-6c" transform="translate(290.966797 0)"/>
       <use xlink:href="#DejaVuSans-65" transform="translate(318.75 0)"/>
       <use xlink:href="#DejaVuSans-20" transform="translate(380.273438 0)"/>
       <use xlink:href="#DejaVuSans-44" transform="translate(412.060547 0)"/>
       <use xlink:href="#DejaVuSans-6f" transform="translate(489.0625 0)"/>
       <use xlink:href="#DejaVuSans-6e" transform="translate(550.244141 0)"/>
       <use xlink:href="#DejaVuSans-7a" transform="translate(613.623047 0)"/>
       <use xlink:href="#DejaVuSans-65" transform="translate(666.113281 0)"/>
       <use xlink:href="#DejaVuSans-6c" transform="translate(727.636719 0)"/>
       <use xlink:href="#DejaVuSans-6c" transform="translate(755.419922 0)"/>
       <use xlink:href="#DejaVuSans-6f" transform="translate(783.203125 0)"/>
      </g>
     </g>
    </g>
    <g id="xtick_16">
     <g id="line2d_16">
      <g>
       <use xlink:href="#m9e5e52a03e" x="485.708676" y="241.213046" style="stroke: #000000; stroke-width: 0.8"/>
      </g>
     </g>
     <g id="text_16">
      <!-- Martyna Gosz -->
      <g transform="translate(449.570113 311.486559) rotate(-60) scale(0.1 -0.1)">
       <defs>
        <path id="DejaVuSans-47" d="M 3809 666 
L 3809 1919 
L 2778 1919 
L 2778 2438 
L 4434 2438 
L 4434 434 
Q 4069 175 3628 42 
Q 3188 -91 2688 -91 
Q 1594 -91 976 548 
Q 359 1188 359 2328 
Q 359 3472 976 4111 
Q 1594 4750 2688 4750 
Q 3144 4750 3555 4637 
Q 3966 4525 4313 4306 
L 4313 3634 
Q 3963 3931 3569 4081 
Q 3175 4231 2741 4231 
Q 1884 4231 1454 3753 
Q 1025 3275 1025 2328 
Q 1025 1384 1454 906 
Q 1884 428 2741 428 
Q 3075 428 3337 486 
Q 3600 544 3809 666 
z
" transform="scale(0.015625)"/>
       </defs>
       <use xlink:href="#DejaVuSans-4d"/>
       <use xlink:href="#DejaVuSans-61" transform="translate(86.279297 0)"/>
       <use xlink:href="#DejaVuSans-72" transform="translate(147.558594 0)"/>
       <use xlink:href="#DejaVuSans-74" transform="translate(188.671875 0)"/>
       <use xlink:href="#DejaVuSans-79" transform="translate(227.880859 0)"/>
       <use xlink:href="#DejaVuSans-6e" transform="translate(287.060547 0)"/>
       <use xlink:href="#DejaVuSans-61" transform="translate(350.439453 0)"/>
       <use xlink:href="#DejaVuSans-20" transform="translate(411.71875 0)"/>
       <use xlink:href="#DejaVuSans-47" transform="translate(443.505859 0)"/>
       <use xlink:href="#DejaVuSans-6f" transform="translate(520.996094 0)"/>
       <use xlink:href="#DejaVuSans-73" transform="translate(582.177734 0)"/>
       <use xlink:href="#DejaVuSans-7a" transform="translate(634.277344 0)"/>
      </g>
     </g>
    </g>
    <g id="xtick_17">
     <g id="line2d_17">
      <g>
       <use xlink:href="#m9e5e52a03e" x="512.357793" y="241.213046" style="stroke: #000000; stroke-width: 0.8"/>
      </g>
     </g>
     <g id="text_17">
      <!-- Jan Mężyński -->
      <g transform="translate(478.227824 308.207572) rotate(-60) scale(0.1 -0.1)">
       <defs>
        <path id="DejaVuSans-4a" d="M 628 4666 
L 1259 4666 
L 1259 325 
Q 1259 -519 939 -900 
Q 619 -1281 -91 -1281 
L -331 -1281 
L -331 -750 
L -134 -750 
Q 284 -750 456 -515 
Q 628 -281 628 325 
L 628 4666 
z
" transform="scale(0.015625)"/>
        <path id="DejaVuSans-119" d="M 3597 1894 
L 3597 1613 
L 953 1613 
Q 991 1019 1311 708 
Q 1631 397 2203 397 
Q 2534 397 2845 478 
Q 3156 559 3463 722 
L 3463 178 
Q 3153 47 2828 -22 
Q 2503 -91 2169 -91 
Q 1331 -91 842 396 
Q 353 884 353 1716 
Q 353 2575 817 3079 
Q 1281 3584 2069 3584 
Q 2775 3584 3186 3129 
Q 3597 2675 3597 1894 
z
M 3022 2063 
Q 3016 2534 2758 2815 
Q 2500 3097 2075 3097 
Q 1594 3097 1305 2825 
Q 1016 2553 972 2059 
L 3022 2063 
z
M 2551 0 
L 2923 0 
Q 2782 -191 2715 -328 
Q 2648 -466 2648 -563 
Q 2648 -706 2734 -778 
Q 2820 -850 2989 -850 
Q 3089 -850 3185 -826 
Q 3282 -803 3379 -756 
L 3379 -1172 
Q 3260 -1203 3154 -1218 
Q 3048 -1234 2954 -1234 
Q 2573 -1234 2393 -1098 
Q 2214 -963 2214 -672 
Q 2214 -522 2296 -358 
Q 2379 -194 2551 0 
z
" transform="scale(0.015625)"/>
        <path id="DejaVuSans-17c" d="M 1378 4863 
L 1953 4863 
L 1953 4134 
L 1378 4134 
L 1378 4863 
z
M 1672 3584 
L 1672 3584 
z
M 353 3500 
L 3084 3500 
L 3084 2975 
L 922 459 
L 3084 459 
L 3084 0 
L 275 0 
L 275 525 
L 2438 3041 
L 353 3041 
L 353 3500 
z
" transform="scale(0.015625)"/>
        <path id="DejaVuSans-144" d="M 2242 5119 
L 2864 5119 
L 1846 3944 
L 1367 3944 
L 2242 5119 
z
M 3513 2113 
L 3513 0 
L 2938 0 
L 2938 2094 
Q 2938 2591 2744 2837 
Q 2550 3084 2163 3084 
Q 1697 3084 1428 2787 
Q 1159 2491 1159 1978 
L 1159 0 
L 581 0 
L 581 3500 
L 1159 3500 
L 1159 2956 
Q 1366 3272 1645 3428 
Q 1925 3584 2291 3584 
Q 2894 3584 3203 3211 
Q 3513 2838 3513 2113 
z
" transform="scale(0.015625)"/>
       </defs>
       <use xlink:href="#DejaVuSans-4a"/>
       <use xlink:href="#DejaVuSans-61" transform="translate(29.492188 0)"/>
       <use xlink:href="#DejaVuSans-6e" transform="translate(90.771484 0)"/>
       <use xlink:href="#DejaVuSans-20" transform="translate(154.150391 0)"/>
       <use xlink:href="#DejaVuSans-4d" transform="translate(185.9375 0)"/>
       <use xlink:href="#DejaVuSans-119" transform="translate(272.216797 0)"/>
       <use xlink:href="#DejaVuSans-17c" transform="translate(333.740234 0)"/>
       <use xlink:href="#DejaVuSans-79" transform="translate(386.230469 0)"/>
       <use xlink:href="#DejaVuSans-144" transform="translate(445.410156 0)"/>
       <use xlink:href="#DejaVuSans-73" transform="translate(508.789062 0)"/>
       <use xlink:href="#DejaVuSans-6b" transform="translate(560.888672 0)"/>
       <use xlink:href="#DejaVuSans-69" transform="translate(618.798828 0)"/>
      </g>
     </g>
    </g>
    <g id="xtick_18">
     <g id="line2d_18">
      <g>
       <use xlink:href="#m9e5e52a03e" x="539.00691" y="241.213046" style="stroke: #000000; stroke-width: 0.8"/>
      </g>
     </g>
     <g id="text_18">
      <!-- Anna Kolomenkina -->
      <g transform="translate(490.625379 332.692003) rotate(-60) scale(0.1 -0.1)">
       <use xlink:href="#DejaVuSans-41"/>
       <use xlink:href="#DejaVuSans-6e" transform="translate(68.408203 0)"/>
       <use xlink:href="#DejaVuSans-6e" transform="translate(131.787109 0)"/>
       <use xlink:href="#DejaVuSans-61" transform="translate(195.166016 0)"/>
       <use xlink:href="#DejaVuSans-20" transform="translate(256.445312 0)"/>
       <use xlink:href="#DejaVuSans-4b" transform="translate(288.232422 0)"/>
       <use xlink:href="#DejaVuSans-6f" transform="translate(348.808594 0)"/>
       <use xlink:href="#DejaVuSans-6c" transform="translate(409.990234 0)"/>
       <use xlink:href="#DejaVuSans-6f" transform="translate(437.773438 0)"/>
       <use xlink:href="#DejaVuSans-6d" transform="translate(498.955078 0)"/>
       <use xlink:href="#DejaVuSans-65" transform="translate(596.367188 0)"/>
       <use xlink:href="#DejaVuSans-6e" transform="translate(657.890625 0)"/>
       <use xlink:href="#DejaVuSans-6b" transform="translate(721.269531 0)"/>
       <use xlink:href="#DejaVuSans-69" transform="translate(779.179688 0)"/>
       <use xlink:href="#DejaVuSans-6e" transform="translate(806.962891 0)"/>
       <use xlink:href="#DejaVuSans-61" transform="translate(870.341797 0)"/>
      </g>
     </g>
    </g>
    <g id="xtick_19">
     <g id="line2d_19">
      <g>
       <use xlink:href="#m9e5e52a03e" x="565.656027" y="241.213046" style="stroke: #000000; stroke-width: 0.8"/>
      </g>
     </g>
     <g id="text_19">
      <!-- Krzysiek Rećko -->
      <g transform="translate(526.533871 316.854295) rotate(-60) scale(0.1 -0.1)">
       <defs>
        <path id="DejaVuSans-52" d="M 2841 2188 
Q 3044 2119 3236 1894 
Q 3428 1669 3622 1275 
L 4263 0 
L 3584 0 
L 2988 1197 
Q 2756 1666 2539 1819 
Q 2322 1972 1947 1972 
L 1259 1972 
L 1259 0 
L 628 0 
L 628 4666 
L 2053 4666 
Q 2853 4666 3247 4331 
Q 3641 3997 3641 3322 
Q 3641 2881 3436 2590 
Q 3231 2300 2841 2188 
z
M 1259 4147 
L 1259 2491 
L 2053 2491 
Q 2509 2491 2742 2702 
Q 2975 2913 2975 3322 
Q 2975 3731 2742 3939 
Q 2509 4147 2053 4147 
L 1259 4147 
z
" transform="scale(0.015625)"/>
        <path id="DejaVuSans-107" d="M 3122 3366 
L 3122 2828 
Q 2878 2963 2633 3030 
Q 2388 3097 2138 3097 
Q 1578 3097 1268 2742 
Q 959 2388 959 1747 
Q 959 1106 1268 751 
Q 1578 397 2138 397 
Q 2388 397 2633 464 
Q 2878 531 3122 666 
L 3122 134 
Q 2881 22 2623 -34 
Q 2366 -91 2075 -91 
Q 1284 -91 818 406 
Q 353 903 353 1747 
Q 353 2603 823 3093 
Q 1294 3584 2113 3584 
Q 2378 3584 2631 3529 
Q 2884 3475 3122 3366 
z
M 2466 5119 
L 3088 5119 
L 2070 3944 
L 1591 3944 
L 2466 5119 
z
" transform="scale(0.015625)"/>
       </defs>
       <use xlink:href="#DejaVuSans-4b"/>
       <use xlink:href="#DejaVuSans-72" transform="translate(65.576172 0)"/>
       <use xlink:href="#DejaVuSans-7a" transform="translate(106.689453 0)"/>
       <use xlink:href="#DejaVuSans-79" transform="translate(159.179688 0)"/>
       <use xlink:href="#DejaVuSans-73" transform="translate(218.359375 0)"/>
       <use xlink:href="#DejaVuSans-69" transform="translate(270.458984 0)"/>
       <use xlink:href="#DejaVuSans-65" transform="translate(298.242188 0)"/>
       <use xlink:href="#DejaVuSans-6b" transform="translate(359.765625 0)"/>
       <use xlink:href="#DejaVuSans-20" transform="translate(417.675781 0)"/>
       <use xlink:href="#DejaVuSans-52" transform="translate(449.462891 0)"/>
       <use xlink:href="#DejaVuSans-65" transform="translate(514.445312 0)"/>
       <use xlink:href="#DejaVuSans-107" transform="translate(575.96875 0)"/>
       <use xlink:href="#DejaVuSans-6b" transform="translate(630.949219 0)"/>
       <use xlink:href="#DejaVuSans-6f" transform="translate(685.234375 0)"/>
      </g>
     </g>
    </g>
    <g id="xtick_20">
     <g id="line2d_20">
      <g>
       <use xlink:href="#m9e5e52a03e" x="592.305144" y="241.213046" style="stroke: #000000; stroke-width: 0.8"/>
      </g>
     </g>
     <g id="text_20">
      <!-- Damian Bartosiewicz -->
      <g transform="translate(538.017363 342.921928) rotate(-60) scale(0.1 -0.1)">
       <use xlink:href="#DejaVuSans-44"/>
       <use xlink:href="#DejaVuSans-61" transform="translate(77.001953 0)"/>
       <use xlink:href="#DejaVuSans-6d" transform="translate(138.28125 0)"/>
       <use xlink:href="#DejaVuSans-69" transform="translate(235.693359 0)"/>
       <use xlink:href="#DejaVuSans-61" transform="translate(263.476562 0)"/>
       <use xlink:href="#DejaVuSans-6e" transform="translate(324.755859 0)"/>
       <use xlink:href="#DejaVuSans-20" transform="translate(388.134766 0)"/>
       <use xlink:href="#DejaVuSans-42" transform="translate(419.921875 0)"/>
       <use xlink:href="#DejaVuSans-61" transform="translate(488.525391 0)"/>
       <use xlink:href="#DejaVuSans-72" transform="translate(549.804688 0)"/>
       <use xlink:href="#DejaVuSans-74" transform="translate(590.917969 0)"/>
       <use xlink:href="#DejaVuSans-6f" transform="translate(630.126953 0)"/>
       <use xlink:href="#DejaVuSans-73" transform="translate(691.308594 0)"/>
       <use xlink:href="#DejaVuSans-69" transform="translate(743.408203 0)"/>
       <use xlink:href="#DejaVuSans-65" transform="translate(771.191406 0)"/>
       <use xlink:href="#DejaVuSans-77" transform="translate(832.714844 0)"/>
       <use xlink:href="#DejaVuSans-69" transform="translate(914.501953 0)"/>
       <use xlink:href="#DejaVuSans-63" transform="translate(942.285156 0)"/>
       <use xlink:href="#DejaVuSans-7a" transform="translate(997.265625 0)"/>
      </g>
     </g>
    </g>
    <g id="xtick_21">
     <g id="line2d_21">
      <g>
       <use xlink:href="#m9e5e52a03e" x="618.954261" y="241.213046" style="stroke: #000000; stroke-width: 0.8"/>
      </g>
     </g>
     <g id="text_21">
      <!-- Michał Dziedziniewicz -->
      <g transform="translate(562.844605 346.077508) rotate(-60) scale(0.1 -0.1)">
       <defs>
        <path id="DejaVuSans-142" d="M 622 4863 
L 1197 4863 
L 1197 2981 
L 1588 3263 
L 1825 2931 
L 1197 2491 
L 1197 0 
L 622 0 
L 622 2081 
L 238 1806 
L 6 2138 
L 622 2578 
L 622 4863 
z
" transform="scale(0.015625)"/>
       </defs>
       <use xlink:href="#DejaVuSans-4d"/>
       <use xlink:href="#DejaVuSans-69" transform="translate(86.279297 0)"/>
       <use xlink:href="#DejaVuSans-63" transform="translate(114.0625 0)"/>
       <use xlink:href="#DejaVuSans-68" transform="translate(169.042969 0)"/>
       <use xlink:href="#DejaVuSans-61" transform="translate(232.421875 0)"/>
       <use xlink:href="#DejaVuSans-142" transform="translate(293.701172 0)"/>
       <use xlink:href="#DejaVuSans-20" transform="translate(322.119141 0)"/>
       <use xlink:href="#DejaVuSans-44" transform="translate(353.90625 0)"/>
       <use xlink:href="#DejaVuSans-7a" transform="translate(430.908203 0)"/>
       <use xlink:href="#DejaVuSans-69" transform="translate(483.398438 0)"/>
       <use xlink:href="#DejaVuSans-65" transform="translate(511.181641 0)"/>
       <use xlink:href="#DejaVuSans-64" transform="translate(572.705078 0)"/>
       <use xlink:href="#DejaVuSans-7a" transform="translate(636.181641 0)"/>
       <use xlink:href="#DejaVuSans-69" transform="translate(688.671875 0)"/>
       <use xlink:href="#DejaVuSans-6e" transform="translate(716.455078 0)"/>
       <use xlink:href="#DejaVuSans-69" transform="translate(779.833984 0)"/>
       <use xlink:href="#DejaVuSans-65" transform="translate(807.617188 0)"/>
       <use xlink:href="#DejaVuSans-77" transform="translate(869.140625 0)"/>
       <use xlink:href="#DejaVuSans-69" transform="translate(950.927734 0)"/>
       <use xlink:href="#DejaVuSans-63" transform="translate(978.710938 0)"/>
       <use xlink:href="#DejaVuSans-7a" transform="translate(1033.691406 0)"/>
      </g>
     </g>
    </g>
    <g id="xtick_22">
     <g id="line2d_22">
      <g>
       <use xlink:href="#m9e5e52a03e" x="645.603378" y="241.213046" style="stroke: #000000; stroke-width: 0.8"/>
      </g>
     </g>
     <g id="text_22">
      <!-- Sylwia Woźniak -->
      <g transform="translate(605.297628 318.904339) rotate(-60) scale(0.1 -0.1)">
       <defs>
        <path id="DejaVuSans-17a" d="M 2242 5119 
L 2864 5119 
L 1846 3944 
L 1367 3944 
L 2242 5119 
z
M 353 3500 
L 3084 3500 
L 3084 2975 
L 922 459 
L 3084 459 
L 3084 0 
L 275 0 
L 275 525 
L 2438 3041 
L 353 3041 
L 353 3500 
z
" transform="scale(0.015625)"/>
       </defs>
       <use xlink:href="#DejaVuSans-53"/>
       <use xlink:href="#DejaVuSans-79" transform="translate(63.476562 0)"/>
       <use xlink:href="#DejaVuSans-6c" transform="translate(122.65625 0)"/>
       <use xlink:href="#DejaVuSans-77" transform="translate(150.439453 0)"/>
       <use xlink:href="#DejaVuSans-69" transform="translate(232.226562 0)"/>
       <use xlink:href="#DejaVuSans-61" transform="translate(260.009766 0)"/>
       <use xlink:href="#DejaVuSans-20" transform="translate(321.289062 0)"/>
       <use xlink:href="#DejaVuSans-57" transform="translate(353.076172 0)"/>
       <use xlink:href="#DejaVuSans-6f" transform="translate(446.078125 0)"/>
       <use xlink:href="#DejaVuSans-17a" transform="translate(507.259766 0)"/>
       <use xlink:href="#DejaVuSans-6e" transform="translate(559.75 0)"/>
       <use xlink:href="#DejaVuSans-69" transform="translate(623.128906 0)"/>
       <use xlink:href="#DejaVuSans-61" transform="translate(650.912109 0)"/>
       <use xlink:href="#DejaVuSans-6b" transform="translate(712.191406 0)"/>
      </g>
     </g>
    </g>
    <g id="xtick_23">
     <g id="line2d_23">
      <g>
       <use xlink:href="#m9e5e52a03e" x="672.252495" y="241.213046" style="stroke: #000000; stroke-width: 0.8"/>
      </g>
     </g>
     <g id="text_23">
      <!-- Aleksander Nowak -->
      <g transform="translate(624.088933 332.31447) rotate(-60) scale(0.1 -0.1)">
       <use xlink:href="#DejaVuSans-41"/>
       <use xlink:href="#DejaVuSans-6c" transform="translate(68.408203 0)"/>
       <use xlink:href="#DejaVuSans-65" transform="translate(96.191406 0)"/>
       <use xlink:href="#DejaVuSans-6b" transform="translate(157.714844 0)"/>
       <use xlink:href="#DejaVuSans-73" transform="translate(215.625 0)"/>
       <use xlink:href="#DejaVuSans-61" transform="translate(267.724609 0)"/>
       <use xlink:href="#DejaVuSans-6e" transform="translate(329.003906 0)"/>
       <use xlink:href="#DejaVuSans-64" transform="translate(392.382812 0)"/>
       <use xlink:href="#DejaVuSans-65" transform="translate(455.859375 0)"/>
       <use xlink:href="#DejaVuSans-72" transform="translate(517.382812 0)"/>
       <use xlink:href="#DejaVuSans-20" transform="translate(558.496094 0)"/>
       <use xlink:href="#DejaVuSans-4e" transform="translate(590.283203 0)"/>
       <use xlink:href="#DejaVuSans-6f" transform="translate(665.087891 0)"/>
       <use xlink:href="#DejaVuSans-77" transform="translate(726.269531 0)"/>
       <use xlink:href="#DejaVuSans-61" transform="translate(808.056641 0)"/>
       <use xlink:href="#DejaVuSans-6b" transform="translate(869.335938 0)"/>
      </g>
     </g>
    </g>
    <g id="xtick_24">
     <g id="line2d_24">
      <g>
       <use xlink:href="#m9e5e52a03e" x="698.901612" y="241.213046" style="stroke: #000000; stroke-width: 0.8"/>
      </g>
     </g>
     <g id="text_24">
      <!-- Natalia Khotsianovska -->
      <g transform="translate(641.651331 348.053128) rotate(-60) scale(0.1 -0.1)">
       <defs>
        <path id="DejaVuSans-76" d="M 191 3500 
L 800 3500 
L 1894 563 
L 2988 3500 
L 3597 3500 
L 2284 0 
L 1503 0 
L 191 3500 
z
" transform="scale(0.015625)"/>
       </defs>
       <use xlink:href="#DejaVuSans-4e"/>
       <use xlink:href="#DejaVuSans-61" transform="translate(74.804688 0)"/>
       <use xlink:href="#DejaVuSans-74" transform="translate(136.083984 0)"/>
       <use xlink:href="#DejaVuSans-61" transform="translate(175.292969 0)"/>
       <use xlink:href="#DejaVuSans-6c" transform="translate(236.572266 0)"/>
       <use xlink:href="#DejaVuSans-69" transform="translate(264.355469 0)"/>
       <use xlink:href="#DejaVuSans-61" transform="translate(292.138672 0)"/>
       <use xlink:href="#DejaVuSans-20" transform="translate(353.417969 0)"/>
       <use xlink:href="#DejaVuSans-4b" transform="translate(385.205078 0)"/>
       <use xlink:href="#DejaVuSans-68" transform="translate(450.78125 0)"/>
       <use xlink:href="#DejaVuSans-6f" transform="translate(514.160156 0)"/>
       <use xlink:href="#DejaVuSans-74" transform="translate(575.341797 0)"/>
       <use xlink:href="#DejaVuSans-73" transform="translate(614.550781 0)"/>
       <use xlink:href="#DejaVuSans-69" transform="translate(666.650391 0)"/>
       <use xlink:href="#DejaVuSans-61" transform="translate(694.433594 0)"/>
       <use xlink:href="#DejaVuSans-6e" transform="translate(755.712891 0)"/>
       <use xlink:href="#DejaVuSans-6f" transform="translate(819.091797 0)"/>
       <use xlink:href="#DejaVuSans-76" transform="translate(880.273438 0)"/>
       <use xlink:href="#DejaVuSans-73" transform="translate(939.453125 0)"/>
       <use xlink:href="#DejaVuSans-6b" transform="translate(991.552734 0)"/>
       <use xlink:href="#DejaVuSans-61" transform="translate(1047.712891 0)"/>
      </g>
     </g>
    </g>
    <g id="xtick_25">
     <g id="line2d_25">
      <g>
       <use xlink:href="#m9e5e52a03e" x="725.550729" y="241.213046" style="stroke: #000000; stroke-width: 0.8"/>
      </g>
     </g>
     <g id="text_25">
      <!-- Tomasz Wilk -->
      <g transform="translate(693.229355 304.874996) rotate(-60) scale(0.1 -0.1)">
       <defs>
        <path id="DejaVuSans-54" d="M -19 4666 
L 3928 4666 
L 3928 4134 
L 2272 4134 
L 2272 0 
L 1638 0 
L 1638 4134 
L -19 4134 
L -19 4666 
z
" transform="scale(0.015625)"/>
       </defs>
       <use xlink:href="#DejaVuSans-54"/>
       <use xlink:href="#DejaVuSans-6f" transform="translate(44.083984 0)"/>
       <use xlink:href="#DejaVuSans-6d" transform="translate(105.265625 0)"/>
       <use xlink:href="#DejaVuSans-61" transform="translate(202.677734 0)"/>
       <use xlink:href="#DejaVuSans-73" transform="translate(263.957031 0)"/>
       <use xlink:href="#DejaVuSans-7a" transform="translate(316.056641 0)"/>
       <use xlink:href="#DejaVuSans-20" transform="translate(368.546875 0)"/>
       <use xlink:href="#DejaVuSans-57" transform="translate(400.333984 0)"/>
       <use xlink:href="#DejaVuSans-69" transform="translate(496.960938 0)"/>
       <use xlink:href="#DejaVuSans-6c" transform="translate(524.744141 0)"/>
       <use xlink:href="#DejaVuSans-6b" transform="translate(552.527344 0)"/>
      </g>
     </g>
    </g>
    <g id="xtick_26">
     <g id="line2d_26">
      <g>
       <use xlink:href="#m9e5e52a03e" x="752.199846" y="241.213046" style="stroke: #000000; stroke-width: 0.8"/>
      </g>
     </g>
     <g id="text_26">
      <!-- Yulia Talybova -->
      <g transform="translate(715.42144 312.594801) rotate(-60) scale(0.1 -0.1)">
       <defs>
        <path id="DejaVuSans-59" d="M -13 4666 
L 666 4666 
L 1959 2747 
L 3244 4666 
L 3922 4666 
L 2272 2222 
L 2272 0 
L 1638 0 
L 1638 2222 
L -13 4666 
z
" transform="scale(0.015625)"/>
        <path id="DejaVuSans-62" d="M 3116 1747 
Q 3116 2381 2855 2742 
Q 2594 3103 2138 3103 
Q 1681 3103 1420 2742 
Q 1159 2381 1159 1747 
Q 1159 1113 1420 752 
Q 1681 391 2138 391 
Q 2594 391 2855 752 
Q 3116 1113 3116 1747 
z
M 1159 2969 
Q 1341 3281 1617 3432 
Q 1894 3584 2278 3584 
Q 2916 3584 3314 3078 
Q 3713 2572 3713 1747 
Q 3713 922 3314 415 
Q 2916 -91 2278 -91 
Q 1894 -91 1617 61 
Q 1341 213 1159 525 
L 1159 0 
L 581 0 
L 581 4863 
L 1159 4863 
L 1159 2969 
z
" transform="scale(0.015625)"/>
       </defs>
       <use xlink:href="#DejaVuSans-59"/>
       <use xlink:href="#DejaVuSans-75" transform="translate(49.583984 0)"/>
       <use xlink:href="#DejaVuSans-6c" transform="translate(112.962891 0)"/>
       <use xlink:href="#DejaVuSans-69" transform="translate(140.746094 0)"/>
       <use xlink:href="#DejaVuSans-61" transform="translate(168.529297 0)"/>
       <use xlink:href="#DejaVuSans-20" transform="translate(229.808594 0)"/>
       <use xlink:href="#DejaVuSans-54" transform="translate(261.595703 0)"/>
       <use xlink:href="#DejaVuSans-61" transform="translate(306.179688 0)"/>
       <use xlink:href="#DejaVuSans-6c" transform="translate(367.458984 0)"/>
       <use xlink:href="#DejaVuSans-79" transform="translate(395.242188 0)"/>
       <use xlink:href="#DejaVuSans-62" transform="translate(454.421875 0)"/>
       <use xlink:href="#DejaVuSans-6f" transform="translate(517.898438 0)"/>
       <use xlink:href="#DejaVuSans-76" transform="translate(579.080078 0)"/>
       <use xlink:href="#DejaVuSans-61" transform="translate(638.259766 0)"/>
      </g>
     </g>
    </g>
    <g id="xtick_27">
     <g id="line2d_27">
      <g>
       <use xlink:href="#m9e5e52a03e" x="778.848963" y="241.213046" style="stroke: #000000; stroke-width: 0.8"/>
      </g>
     </g>
     <g id="text_27">
      <!-- Julia Borychowska -->
      <g transform="translate(731.925245 330.166997) rotate(-60) scale(0.1 -0.1)">
       <use xlink:href="#DejaVuSans-4a"/>
       <use xlink:href="#DejaVuSans-75" transform="translate(29.492188 0)"/>
       <use xlink:href="#DejaVuSans-6c" transform="translate(92.871094 0)"/>
       <use xlink:href="#DejaVuSans-69" transform="translate(120.654297 0)"/>
       <use xlink:href="#DejaVuSans-61" transform="translate(148.4375 0)"/>
       <use xlink:href="#DejaVuSans-20" transform="translate(209.716797 0)"/>
       <use xlink:href="#DejaVuSans-42" transform="translate(241.503906 0)"/>
       <use xlink:href="#DejaVuSans-6f" transform="translate(310.107422 0)"/>
       <use xlink:href="#DejaVuSans-72" transform="translate(371.289062 0)"/>
       <use xlink:href="#DejaVuSans-79" transform="translate(412.402344 0)"/>
       <use xlink:href="#DejaVuSans-63" transform="translate(471.582031 0)"/>
       <use xlink:href="#DejaVuSans-68" transform="translate(526.5625 0)"/>
       <use xlink:href="#DejaVuSans-6f" transform="translate(589.941406 0)"/>
       <use xlink:href="#DejaVuSans-77" transform="translate(651.123047 0)"/>
       <use xlink:href="#DejaVuSans-73" transform="translate(732.910156 0)"/>
       <use xlink:href="#DejaVuSans-6b" transform="translate(785.009766 0)"/>
       <use xlink:href="#DejaVuSans-61" transform="translate(841.169922 0)"/>
      </g>
     </g>
    </g>
    <g id="xtick_28">
     <g id="line2d_28">
      <g>
       <use xlink:href="#m9e5e52a03e" x="805.49808" y="241.213046" style="stroke: #000000; stroke-width: 0.8"/>
      </g>
     </g>
     <g id="text_28">
      <!-- Iana Kain -->
      <g transform="translate(780.522799 292.151189) rotate(-60) scale(0.1 -0.1)">
       <defs>
        <path id="DejaVuSans-49" d="M 628 4666 
L 1259 4666 
L 1259 0 
L 628 0 
L 628 4666 
z
" transform="scale(0.015625)"/>
       </defs>
       <use xlink:href="#DejaVuSans-49"/>
       <use xlink:href="#DejaVuSans-61" transform="translate(29.492188 0)"/>
       <use xlink:href="#DejaVuSans-6e" transform="translate(90.771484 0)"/>
       <use xlink:href="#DejaVuSans-61" transform="translate(154.150391 0)"/>
       <use xlink:href="#DejaVuSans-20" transform="translate(215.429688 0)"/>
       <use xlink:href="#DejaVuSans-4b" transform="translate(247.216797 0)"/>
       <use xlink:href="#DejaVuSans-61" transform="translate(311.042969 0)"/>
       <use xlink:href="#DejaVuSans-69" transform="translate(372.322266 0)"/>
       <use xlink:href="#DejaVuSans-6e" transform="translate(400.105469 0)"/>
      </g>
     </g>
    </g>
   </g>
   <g id="matplotlib.axis_2">
    <g id="ytick_1">
     <g id="line2d_29">
      <defs>
       <path id="m98459042d3" d="M 0 0 
L -3.5 0 
" style="stroke: #000000; stroke-width: 0.8"/>
      </defs>
      <g>
       <use xlink:href="#m98459042d3" x="38.27" y="241.213046" style="stroke: #000000; stroke-width: 0.8"/>
      </g>
     </g>
     <g id="text_29">
      <!-- 0 -->
      <g transform="translate(24.9075 245.012264) scale(0.1 -0.1)">
       <defs>
        <path id="DejaVuSans-30" d="M 2034 4250 
Q 1547 4250 1301 3770 
Q 1056 3291 1056 2328 
Q 1056 1369 1301 889 
Q 1547 409 2034 409 
Q 2525 409 2770 889 
Q 3016 1369 3016 2328 
Q 3016 3291 2770 3770 
Q 2525 4250 2034 4250 
z
M 2034 4750 
Q 2819 4750 3233 4129 
Q 3647 3509 3647 2328 
Q 3647 1150 3233 529 
Q 2819 -91 2034 -91 
Q 1250 -91 836 529 
Q 422 1150 422 2328 
Q 422 3509 836 4129 
Q 1250 4750 2034 4750 
z
" transform="scale(0.015625)"/>
       </defs>
       <use xlink:href="#DejaVuSans-30"/>
      </g>
     </g>
    </g>
    <g id="ytick_2">
     <g id="line2d_30">
      <g>
       <use xlink:href="#m98459042d3" x="38.27" y="217.117466" style="stroke: #000000; stroke-width: 0.8"/>
      </g>
     </g>
     <g id="text_30">
      <!-- 1 -->
      <g transform="translate(24.9075 220.916685) scale(0.1 -0.1)">
       <defs>
        <path id="DejaVuSans-31" d="M 794 531 
L 1825 531 
L 1825 4091 
L 703 3866 
L 703 4441 
L 1819 4666 
L 2450 4666 
L 2450 531 
L 3481 531 
L 3481 0 
L 794 0 
L 794 531 
z
" transform="scale(0.015625)"/>
       </defs>
       <use xlink:href="#DejaVuSans-31"/>
      </g>
     </g>
    </g>
    <g id="ytick_3">
     <g id="line2d_31">
      <g>
       <use xlink:href="#m98459042d3" x="38.27" y="193.021887" style="stroke: #000000; stroke-width: 0.8"/>
      </g>
     </g>
     <g id="text_31">
      <!-- 2 -->
      <g transform="translate(24.9075 196.821106) scale(0.1 -0.1)">
       <defs>
        <path id="DejaVuSans-32" d="M 1228 531 
L 3431 531 
L 3431 0 
L 469 0 
L 469 531 
Q 828 903 1448 1529 
Q 2069 2156 2228 2338 
Q 2531 2678 2651 2914 
Q 2772 3150 2772 3378 
Q 2772 3750 2511 3984 
Q 2250 4219 1831 4219 
Q 1534 4219 1204 4116 
Q 875 4013 500 3803 
L 500 4441 
Q 881 4594 1212 4672 
Q 1544 4750 1819 4750 
Q 2544 4750 2975 4387 
Q 3406 4025 3406 3419 
Q 3406 3131 3298 2873 
Q 3191 2616 2906 2266 
Q 2828 2175 2409 1742 
Q 1991 1309 1228 531 
z
" transform="scale(0.015625)"/>
       </defs>
       <use xlink:href="#DejaVuSans-32"/>
      </g>
     </g>
    </g>
    <g id="ytick_4">
     <g id="line2d_32">
      <g>
       <use xlink:href="#m98459042d3" x="38.27" y="168.926308" style="stroke: #000000; stroke-width: 0.8"/>
      </g>
     </g>
     <g id="text_32">
      <!-- 3 -->
      <g transform="translate(24.9075 172.725526) scale(0.1 -0.1)">
       <defs>
        <path id="DejaVuSans-33" d="M 2597 2516 
Q 3050 2419 3304 2112 
Q 3559 1806 3559 1356 
Q 3559 666 3084 287 
Q 2609 -91 1734 -91 
Q 1441 -91 1130 -33 
Q 819 25 488 141 
L 488 750 
Q 750 597 1062 519 
Q 1375 441 1716 441 
Q 2309 441 2620 675 
Q 2931 909 2931 1356 
Q 2931 1769 2642 2001 
Q 2353 2234 1838 2234 
L 1294 2234 
L 1294 2753 
L 1863 2753 
Q 2328 2753 2575 2939 
Q 2822 3125 2822 3475 
Q 2822 3834 2567 4026 
Q 2313 4219 1838 4219 
Q 1578 4219 1281 4162 
Q 984 4106 628 3988 
L 628 4550 
Q 988 4650 1302 4700 
Q 1616 4750 1894 4750 
Q 2613 4750 3031 4423 
Q 3450 4097 3450 3541 
Q 3450 3153 3228 2886 
Q 3006 2619 2597 2516 
z
" transform="scale(0.015625)"/>
       </defs>
       <use xlink:href="#DejaVuSans-33"/>
      </g>
     </g>
    </g>
    <g id="ytick_5">
     <g id="line2d_33">
      <g>
       <use xlink:href="#m98459042d3" x="38.27" y="144.830728" style="stroke: #000000; stroke-width: 0.8"/>
      </g>
     </g>
     <g id="text_33">
      <!-- 4 -->
      <g transform="translate(24.9075 148.629947) scale(0.1 -0.1)">
       <defs>
        <path id="DejaVuSans-34" d="M 2419 4116 
L 825 1625 
L 2419 1625 
L 2419 4116 
z
M 2253 4666 
L 3047 4666 
L 3047 1625 
L 3713 1625 
L 3713 1100 
L 3047 1100 
L 3047 0 
L 2419 0 
L 2419 1100 
L 313 1100 
L 313 1709 
L 2253 4666 
z
" transform="scale(0.015625)"/>
       </defs>
       <use xlink:href="#DejaVuSans-34"/>
      </g>
     </g>
    </g>
    <g id="ytick_6">
     <g id="line2d_34">
      <g>
       <use xlink:href="#m98459042d3" x="38.27" y="120.735149" style="stroke: #000000; stroke-width: 0.8"/>
      </g>
     </g>
     <g id="text_34">
      <!-- 5 -->
      <g transform="translate(24.9075 124.534368) scale(0.1 -0.1)">
       <defs>
        <path id="DejaVuSans-35" d="M 691 4666 
L 3169 4666 
L 3169 4134 
L 1269 4134 
L 1269 2991 
Q 1406 3038 1543 3061 
Q 1681 3084 1819 3084 
Q 2600 3084 3056 2656 
Q 3513 2228 3513 1497 
Q 3513 744 3044 326 
Q 2575 -91 1722 -91 
Q 1428 -91 1123 -41 
Q 819 9 494 109 
L 494 744 
Q 775 591 1075 516 
Q 1375 441 1709 441 
Q 2250 441 2565 725 
Q 2881 1009 2881 1497 
Q 2881 1984 2565 2268 
Q 2250 2553 1709 2553 
Q 1456 2553 1204 2497 
Q 953 2441 691 2322 
L 691 4666 
z
" transform="scale(0.015625)"/>
       </defs>
       <use xlink:href="#DejaVuSans-35"/>
      </g>
     </g>
    </g>
    <g id="ytick_7">
     <g id="line2d_35">
      <g>
       <use xlink:href="#m98459042d3" x="38.27" y="96.63957" style="stroke: #000000; stroke-width: 0.8"/>
      </g>
     </g>
     <g id="text_35">
      <!-- 6 -->
      <g transform="translate(24.9075 100.438788) scale(0.1 -0.1)">
       <defs>
        <path id="DejaVuSans-36" d="M 2113 2584 
Q 1688 2584 1439 2293 
Q 1191 2003 1191 1497 
Q 1191 994 1439 701 
Q 1688 409 2113 409 
Q 2538 409 2786 701 
Q 3034 994 3034 1497 
Q 3034 2003 2786 2293 
Q 2538 2584 2113 2584 
z
M 3366 4563 
L 3366 3988 
Q 3128 4100 2886 4159 
Q 2644 4219 2406 4219 
Q 1781 4219 1451 3797 
Q 1122 3375 1075 2522 
Q 1259 2794 1537 2939 
Q 1816 3084 2150 3084 
Q 2853 3084 3261 2657 
Q 3669 2231 3669 1497 
Q 3669 778 3244 343 
Q 2819 -91 2113 -91 
Q 1303 -91 875 529 
Q 447 1150 447 2328 
Q 447 3434 972 4092 
Q 1497 4750 2381 4750 
Q 2619 4750 2861 4703 
Q 3103 4656 3366 4563 
z
" transform="scale(0.015625)"/>
       </defs>
       <use xlink:href="#DejaVuSans-36"/>
      </g>
     </g>
    </g>
    <g id="ytick_8">
     <g id="line2d_36">
      <g>
       <use xlink:href="#m98459042d3" x="38.27" y="72.54399" style="stroke: #000000; stroke-width: 0.8"/>
      </g>
     </g>
     <g id="text_36">
      <!-- 7 -->
      <g transform="translate(24.9075 76.343209) scale(0.1 -0.1)">
       <defs>
        <path id="DejaVuSans-37" d="M 525 4666 
L 3525 4666 
L 3525 4397 
L 1831 0 
L 1172 0 
L 2766 4134 
L 525 4134 
L 525 4666 
z
" transform="scale(0.015625)"/>
       </defs>
       <use xlink:href="#DejaVuSans-37"/>
      </g>
     </g>
    </g>
    <g id="ytick_9">
     <g id="line2d_37">
      <g>
       <use xlink:href="#m98459042d3" x="38.27" y="48.448411" style="stroke: #000000; stroke-width: 0.8"/>
      </g>
     </g>
     <g id="text_37">
      <!-- 8 -->
      <g transform="translate(24.9075 52.24763) scale(0.1 -0.1)">
       <defs>
        <path id="DejaVuSans-38" d="M 2034 2216 
Q 1584 2216 1326 1975 
Q 1069 1734 1069 1313 
Q 1069 891 1326 650 
Q 1584 409 2034 409 
Q 2484 409 2743 651 
Q 3003 894 3003 1313 
Q 3003 1734 2745 1975 
Q 2488 2216 2034 2216 
z
M 1403 2484 
Q 997 2584 770 2862 
Q 544 3141 544 3541 
Q 544 4100 942 4425 
Q 1341 4750 2034 4750 
Q 2731 4750 3128 4425 
Q 3525 4100 3525 3541 
Q 3525 3141 3298 2862 
Q 3072 2584 2669 2484 
Q 3125 2378 3379 2068 
Q 3634 1759 3634 1313 
Q 3634 634 3220 271 
Q 2806 -91 2034 -91 
Q 1263 -91 848 271 
Q 434 634 434 1313 
Q 434 1759 690 2068 
Q 947 2378 1403 2484 
z
M 1172 3481 
Q 1172 3119 1398 2916 
Q 1625 2713 2034 2713 
Q 2441 2713 2670 2916 
Q 2900 3119 2900 3481 
Q 2900 3844 2670 4047 
Q 2441 4250 2034 4250 
Q 1625 4250 1398 4047 
Q 1172 3844 1172 3481 
z
" transform="scale(0.015625)"/>
       </defs>
       <use xlink:href="#DejaVuSans-38"/>
      </g>
     </g>
    </g>
    <g id="text_38">
     <!-- Load (Effort) -->
     <g transform="translate(18.827813 164.927929) rotate(-90) scale(0.1 -0.1)">
      <defs>
       <path id="DejaVuSans-28" d="M 1984 4856 
Q 1566 4138 1362 3434 
Q 1159 2731 1159 2009 
Q 1159 1288 1364 580 
Q 1569 -128 1984 -844 
L 1484 -844 
Q 1016 -109 783 600 
Q 550 1309 550 2009 
Q 550 2706 781 3412 
Q 1013 4119 1484 4856 
L 1984 4856 
z
" transform="scale(0.015625)"/>
       <path id="DejaVuSans-29" d="M 513 4856 
L 1013 4856 
Q 1481 4119 1714 3412 
Q 1947 2706 1947 2009 
Q 1947 1309 1714 600 
Q 1481 -109 1013 -844 
L 513 -844 
Q 928 -128 1133 580 
Q 1338 1288 1338 2009 
Q 1338 2731 1133 3434 
Q 928 4138 513 4856 
z
" transform="scale(0.015625)"/>
      </defs>
      <use xlink:href="#DejaVuSans-4c"/>
      <use xlink:href="#DejaVuSans-6f" transform="translate(53.962891 0)"/>
      <use xlink:href="#DejaVuSans-61" transform="translate(115.144531 0)"/>
      <use xlink:href="#DejaVuSans-64" transform="translate(176.423828 0)"/>
      <use xlink:href="#DejaVuSans-20" transform="translate(239.900391 0)"/>
      <use xlink:href="#DejaVuSans-28" transform="translate(271.6875 0)"/>
      <use xlink:href="#DejaVuSans-45" transform="translate(310.701172 0)"/>
      <use xlink:href="#DejaVuSans-66" transform="translate(373.884766 0)"/>
      <use xlink:href="#DejaVuSans-66" transform="translate(409.089844 0)"/>
      <use xlink:href="#DejaVuSans-6f" transform="translate(444.294922 0)"/>
      <use xlink:href="#DejaVuSans-72" transform="translate(505.476562 0)"/>
      <use xlink:href="#DejaVuSans-74" transform="translate(546.589844 0)"/>
      <use xlink:href="#DejaVuSans-29" transform="translate(585.798828 0)"/>
     </g>
    </g>
   </g>
   <g id="line2d_38">
    <path d="M 38.27 48.448411 
L 853.2 48.448411 
" clip-path="url(#p78d3f2ce9e)" style="fill: none; stroke-dasharray: 5.55,2.4; stroke-dashoffset: 0; stroke: #000000; stroke-width: 1.5"/>
   </g>
   <g id="patch_59">
    <path d="M 38.27 241.213046 
L 38.27 26.16 
" style="fill: none; stroke: #000000; stroke-width: 0.8; stroke-linejoin: miter; stroke-linecap: square"/>
   </g>
   <g id="patch_60">
    <path d="M 853.2 241.213046 
L 853.2 26.16 
" style="fill: none; stroke: #000000; stroke-width: 0.8; stroke-linejoin: miter; stroke-linecap: square"/>
   </g>
   <g id="patch_61">
    <path d="M 38.27 241.213046 
L 853.2 241.213046 
" style="fill: none; stroke: #000000; stroke-width: 0.8; stroke-linejoin: miter; stroke-linecap: square"/>
   </g>
   <g id="patch_62">
    <path d="M 38.27 26.16 
L 853.2 26.16 
" style="fill: none; stroke: #000000; stroke-width: 0.8; stroke-linejoin: miter; stroke-linecap: square"/>
   </g>
   <g id="text_39">
    <!-- Per-person load (chosen model) — ascending, layered -->
    <g transform="translate(283.794062 20.16) scale(0.12 -0.12)">
     <defs>
      <path id="DejaVuSans-2d" d="M 313 2009 
L 1997 2009 
L 1997 1497 
L 313 1497 
L 313 2009 
z
" transform="scale(0.015625)"/>
      <path id="DejaVuSans-2014" d="M 313 1978 
L 6088 1978 
L 6088 1528 
L 313 1528 
L 313 1978 
z
" transform="scale(0.015625)"/>
      <path id="DejaVuSans-2c" d="M 750 794 
L 1409 794 
L 1409 256 
L 897 -744 
L 494 -744 
L 750 256 
L 750 794 
z
" transform="scale(0.015625)"/>
     </defs>
     <use xlink:href="#DejaVuSans-50"/>
     <use xlink:href="#DejaVuSans-65" transform="translate(56.677734 0)"/>
     <use xlink:href="#DejaVuSans-72" transform="translate(118.201172 0)"/>
     <use xlink:href="#DejaVuSans-2d" transform="translate(152.939453 0)"/>
     <use xlink:href="#DejaVuSans-70" transform="translate(189.023438 0)"/>
     <use xlink:href="#DejaVuSans-65" transform="translate(252.5 0)"/>
     <use xlink:href="#DejaVuSans-72" transform="translate(314.023438 0)"/>
     <use xlink:href="#DejaVuSans-73" transform="translate(355.136719 0)"/>
     <use xlink:href="#DejaVuSans-6f" transform="translate(407.236328 0)"/>
     <use xlink:href="#DejaVuSans-6e" transform="translate(468.417969 0)"/>
     <use xlink:href="#DejaVuSans-20" transform="translate(531.796875 0)"/>
     <use xlink:href="#DejaVuSans-6c" transform="translate(563.583984 0)"/>
     <use xlink:href="#DejaVuSans-6f" transform="translate(591.367188 0)"/>
     <use xlink:href="#DejaVuSans-61" transform="translate(652.548828 0)"/>
     <use xlink:href="#DejaVuSans-64" transform="translate(713.828125 0)"/>
     <use xlink:href="#DejaVuSans-20" transform="translate(777.304688 0)"/>
     <use xlink:href="#DejaVuSans-28" transform="translate(809.091797 0)"/>
     <use xlink:href="#DejaVuSans-63" transform="translate(848.105469 0)"/>
     <use xlink:href="#DejaVuSans-68" transform="translate(903.085938 0)"/>
     <use xlink:href="#DejaVuSans-6f" transform="translate(966.464844 0)"/>
     <use xlink:href="#DejaVuSans-73" transform="translate(1027.646484 0)"/>
     <use xlink:href="#DejaVuSans-65" transform="translate(1079.746094 0)"/>
     <use xlink:href="#DejaVuSans-6e" transform="translate(1141.269531 0)"/>
     <use xlink:href="#DejaVuSans-20" transform="translate(1204.648438 0)"/>
     <use xlink:href="#DejaVuSans-6d" transform="translate(1236.435547 0)"/>
     <use xlink:href="#DejaVuSans-6f" transform="translate(1333.847656 0)"/>
     <use xlink:href="#DejaVuSans-64" transform="translate(1395.029297 0)"/>
     <use xlink:href="#DejaVuSans-65" transform="translate(1458.505859 0)"/>
     <use xlink:href="#DejaVuSans-6c" transform="translate(1520.029297 0)"/>
     <use xlink:href="#DejaVuSans-29" transform="translate(1547.8125 0)"/>
     <use xlink:href="#DejaVuSans-20" transform="translate(1586.826172 0)"/>
     <use xlink:href="#DejaVuSans-2014" transform="translate(1618.613281 0)"/>
     <use xlink:href="#DejaVuSans-20" transform="translate(1718.613281 0)"/>
     <use xlink:href="#DejaVuSans-61" transform="translate(1750.400391 0)"/>
     <use xlink:href="#DejaVuSans-73" transform="translate(1811.679688 0)"/>
     <use xlink:href="#DejaVuSans-63" transform="translate(1863.779297 0)"/>
     <use xlink:href="#DejaVuSans-65" transform="translate(1918.759766 0)"/>
     <use xlink:href="#DejaVuSans-6e" transform="translate(1980.283203 0)"/>
     <use xlink:href="#DejaVuSans-64" transform="translate(2043.662109 0)"/>
     <use xlink:href="#DejaVuSans-69" transform="translate(2107.138672 0)"/>
     <use xlink:href="#DejaVuSans-6e" transform="translate(2134.921875 0)"/>
     <use xlink:href="#DejaVuSans-67" transform="translate(2198.300781 0)"/>
     <use xlink:href="#DejaVuSans-2c" transform="translate(2261.777344 0)"/>
     <use xlink:href="#DejaVuSans-20" transform="translate(2293.564453 0)"/>
     <use xlink:href="#DejaVuSans-6c" transform="translate(2325.351562 0)"/>
     <use xlink:href="#DejaVuSans-61" transform="translate(2353.134766 0)"/>
     <use xlink:href="#DejaVuSans-79" transform="translate(2414.414062 0)"/>
     <use xlink:href="#DejaVuSans-65" transform="translate(2473.59375 0)"/>
     <use xlink:href="#DejaVuSans-72" transform="translate(2535.117188 0)"/>
     <use xlink:href="#DejaVuSans-65" transform="translate(2573.980469 0)"/>
     <use xlink:href="#DejaVuSans-64" transform="translate(2635.503906 0)"/>
    </g>
   </g>
   <g id="legend_1">
    <g id="patch_63">
     <path d="M 45.27 63.51625 
L 155.765313 63.51625 
Q 157.765313 63.51625 157.765313 61.51625 
L 157.765313 33.16 
Q 157.765313 31.16 155.765313 31.16 
L 45.27 31.16 
Q 43.27 31.16 43.27 33.16 
L 43.27 61.51625 
Q 43.27 63.51625 45.27 63.51625 
z
" style="fill: #ffffff; opacity: 0.8; stroke: #cccccc; stroke-linejoin: miter"/>
    </g>
    <g id="patch_64">
     <path d="M 47.27 42.758437 
L 67.27 42.758437 
L 67.27 35.758437 
L 47.27 35.758437 
z
" style="fill: #1f77b4"/>
    </g>
    <g id="text_40">
     <!-- Manual/Prepass -->
     <g transform="translate(75.27 42.758437) scale(0.1 -0.1)">
      <defs>
       <path id="DejaVuSans-2f" d="M 1625 4666 
L 2156 4666 
L 531 -594 
L 0 -594 
L 1625 4666 
z
" transform="scale(0.015625)"/>
      </defs>
      <use xlink:href="#DejaVuSans-4d"/>
      <use xlink:href="#DejaVuSans-61" transform="translate(86.279297 0)"/>
      <use xlink:href="#DejaVuSans-6e" transform="translate(147.558594 0)"/>
      <use xlink:href="#DejaVuSans-75" transform="translate(210.9375 0)"/>
      <use xlink:href="#DejaVuSans-61" transform="translate(274.316406 0)"/>
      <use xlink:href="#DejaVuSans-6c" transform="translate(335.595703 0)"/>
      <use xlink:href="#DejaVuSans-2f" transform="translate(363.378906 0)"/>
      <use xlink:href="#DejaVuSans-50" transform="translate(397.070312 0)"/>
      <use xlink:href="#DejaVuSans-72" transform="translate(455.623047 0)"/>
      <use xlink:href="#DejaVuSans-65" transform="translate(494.486328 0)"/>
      <use xlink:href="#DejaVuSans-70" transform="translate(556.009766 0)"/>
      <use xlink:href="#DejaVuSans-61" transform="translate(619.486328 0)"/>
      <use xlink:href="#DejaVuSans-73" transform="translate(680.765625 0)"/>
      <use xlink:href="#DejaVuSans-73" transform="translate(732.865234 0)"/>
     </g>
    </g>
    <g id="patch_65">
     <path d="M 47.27 57.436562 
L 67.27 57.436562 
L 67.27 50.436562 
L 47.27 50.436562 
z
" style="fill: #ff7f0e"/>
    </g>
    <g id="text_41">
     <!-- Auto -->
     <g transform="translate(75.27 57.436562) scale(0.1 -0.1)">
      <use xlink:href="#DejaVuSans-41"/>
      <use xlink:href="#DejaVuSans-75" transform="translate(68.408203 0)"/>
      <use xlink:href="#DejaVuSans-74" transform="translate(131.787109 0)"/>
      <use xlink:href="#DejaVuSans-6f" transform="translate(170.996094 0)"/>
     </g>
    </g>
   </g>
  </g>
 </g>
 <defs>
  <clipPath id="p78d3f2ce9e">
   <rect x="38.27" y="26.16" width="814.93" height="215.053046"/>
  </clipPath>
 </defs>
</svg>
